<svg width="4262" height="1187" xmlns="http://www.w3.org/2000/svg" xmlns:xlink="http://www.w3.org/1999/xlink" xml:space="preserve" overflow="hidden"><defs><clipPath id="clip0"><rect x="6699" y="4105" width="4262" height="1187"/></clipPath></defs><g clip-path="url(#clip0)" transform="translate(-6699 -4105)"><path d="M8394.65 5161.08C8307.02 5163.9 7955.08 5168.48 7853.37 5171.29 7662.61 5175.87 7028.77 5203.32 6933.39 5239.22 6921.78 5243.44 6914.39 5238.51 6910.16 5225.49 6908.05 5224.43 6905.94 5223.73 6904.18 5223.73 6897.85 5223.03 6889.75 5230.07 6885.53 5234.29 6881.3 5238.16 6892.92 5242.03 6892.92 5242.03L6898.55 5245.9C6898.55 5245.9 6904.53 5255.4 6904.53 5259.98 6904.53 5264.56 6899.61 5259.98 6896.44 5256.81 6893.62 5253.65 6878.14 5241.33 6873.21 5237.46 6867.93 5233.58 6862.3 5236.75 6859.48 5235.34 6856.67 5233.94 6846.46 5230.07 6842.24 5229.36 6838.02 5228.66 6822.18 5234.29 6818.31 5236.75 6814.79 5239.22 6812.68 5250.13 6809.16 5252.59 6805.64 5255.05 6804.23 5255.76 6802.12 5261.39 6800.01 5267.02 6783.82 5283.56 6775.72 5289.19 6767.98 5294.82 6752.5 5290.25 6752.5 5290.25 6752.5 5290.25 6758.13 5275.11 6760.24 5271.95 6762.35 5268.78 6767.98 5259.98 6767.98 5259.98 6767.98 5259.98 6763.41 5253.65 6762.7 5251.53 6762 5249.07 6746.86 5254.7 6746.86 5254.7 6746.86 5254.7 6733.14 5250.83 6727.16 5248.01 6721.17 5244.85 6715.54 5237.81 6714.84 5233.94 6714.13 5230.07 6713.78 5219.16 6713.78 5219.16L6717.3 5207.19 6722.93 5203.32 6726.45 5200.15C6726.45 5200.15 6721.17 5189.94 6721.88 5186.07 6722.58 5182.2 6712.37 5183.96 6706.74 5182.2 6701.11 5180.79 6704.28 5172 6704.28 5172L6699 5161.08C6699 5161.08 6714.13 5156.86 6716.25 5156.86 6718.36 5156.86 6721.17 5150.53 6725.4 5151.23 6729.62 5151.93 6728.21 5139.26 6728.21 5139.26L6731.73 5125.89C6731.73 5125.89 6722.93 5123.78 6723.64 5118.15 6724.34 5112.52 6722.23 5108.65 6718.36 5107.24 6714.84 5105.83 6710.97 5100.2 6710.97 5094.57 6710.97 5088.94 6716.6 5091.4 6716.6 5088.94 6716.6 5086.47 6726.8 5083.31 6731.73 5086.47 6736.66 5089.64 6742.64 5083.31 6746.16 5080.14 6749.68 5076.97 6762 5076.97 6762.7 5080.84 6763.41 5084.71 6775.02 5087.18 6775.02 5087.18 6775.02 5087.18 6780.65 5075.92 6784.87 5075.92 6789.1 5075.92 6794.73 5063.95 6794.73 5063.95L6794.02 5053.04C6794.02 5053.04 6794.73 5045.3 6797.54 5042.83 6800.36 5040.37 6804.58 5036.5 6808.1 5034.03 6811.62 5031.57 6807.4 5047.41 6807.4 5047.41 6807.4 5047.41 6827.46 5073.1 6829.57 5073.8 6831.68 5074.51 6835.55 5079.43 6835.55 5079.43 6835.55 5079.43 6838.02 5091.05 6838.02 5093.51 6838.02 5095.98 6850.33 5094.22 6850.33 5094.22 6850.33 5094.22 6856.67 5082.25 6853.85 5080.14 6851.04 5078.03 6849.28 5069.23 6852.8 5063.6 6856.32 5057.97 6866.52 5054.1 6867.93 5047.76 6869.34 5041.43 6864.06 5031.22 6864.06 5031.22L6871.45 5029.46 6872.15 5039.67 6884.47 5047.41C6884.47 5047.41 6898.9 5042.48 6900.31 5039.31 6901.72 5036.15 6909.81 5054.8 6915.09 5057.26 6920.37 5059.37 6918.61 5048.46 6918.61 5048.46L6921.43 5034.39C6921.43 5034.39 6914.74 5030.52 6914.04 5022.07 6912.98 5013.27 6919.67 5017.14 6925.65 5022.77 6926.35 5023.48 6927.41 5023.83 6928.82 5024.53 6931.63 5010.1 6934.8 4995.67 6938.32 4980.54 6936.91 4977.37 6930.93 4977.72 6926 4978.08 6920.37 4978.08 6916.15 4987.58 6910.87 4987.58 6905.94 4987.58 6904.18 4976.67 6904.89 4974.2 6905.59 4971.74 6896.79 4971.04 6892.57 4969.63 6888.34 4968.22 6883.06 4960.13 6882.36 4956.26 6881.66 4952.38 6886.58 4944.29 6886.58 4944.29 6886.58 4944.29 6888.7 4929.51 6888.7 4927.04 6888.7 4924.58 6897.85 4922.12 6897.85 4922.12L6885.53 4915.78C6885.53 4915.78 6867.23 4902.76 6863 4902.06 6858.78 4901.35 6850.69 4904.52 6850.69 4904.52 6850.69 4904.52 6849.28 4899.95 6847.17 4899.24 6845.06 4898.54 6844.35 4906.98 6842.24 4906.98 6840.13 4906.98 6834.85 4901.71 6834.85 4898.54 6834.85 4895.37 6820.42 4894.67 6814.44 4895.02 6808.81 4895.02 6806.69 4908.39 6807.4 4914.02 6808.1 4919.65 6769.74 4916.13 6763.41 4914.73 6756.72 4913.32 6764.81 4865.1 6764.81 4858.06 6764.81 4851.03 6779.59 4820.76 6783.11 4815.48 6786.63 4809.85 6784.52 4803.51 6784.52 4803.51L6801.06 4785.21 6812.32 4764.8C6812.32 4764.8 6813.73 4750.72 6817.96 4751.43 6822.18 4752.13 6816.2 4730.31 6816.2 4730.31 6816.2 4730.31 6824.29 4730.31 6828.51 4731.01 6832.74 4731.72 6840.13 4734.89 6842.24 4737 6844.35 4739.46 6846.46 4732.42 6849.28 4732.42 6852.09 4732.42 6854.91 4725.38 6854.91 4725.38L6857.73 4704.97C6857.73 4704.97 6850.33 4691.6 6849.63 4685.26 6848.93 4678.93 6854.56 4675.76 6854.56 4675.76L6858.78 4668.72C6858.78 4668.72 6873.91 4672.59 6876.03 4673.3 6878.14 4674 6879.55 4663.79 6879.55 4663.79 6879.55 4663.79 6883.77 4658.16 6887.99 4657.46 6892.22 4656.75 6890.1 4650.42 6890.1 4645.49 6890.1 4640.92 6901.01 4640.56 6901.01 4640.56L6912.28 4628.6 6910.52 4615.23C6910.52 4615.23 6903.13 4608.19 6901.72 4605.02 6900.31 4601.85 6907.35 4594.81 6907.35 4592.35 6907.35 4589.89 6910.16 4583.55 6913.68 4584.25 6917.2 4584.96 6916.5 4577.92 6915.8 4575.46 6915.09 4572.99 6920.02 4567.36 6920.02 4563.49 6920.02 4561.03 6913.68 4557.51 6908.05 4554.34 6899.96 4553.28 6888.34 4552.93 6888.34 4552.93L6876.38 4548.71C6876.38 4548.71 6884.82 4531.11 6883.42 4526.89 6882.01 4523.02 6867.23 4517.39 6867.23 4517.39L6883.06 4497.68C6883.06 4497.68 6912.98 4491.34 6913.33 4485.71 6913.33 4480.08 6909.11 4468.47 6909.11 4468.47L6916.5 4464.59C6916.5 4464.59 6896.09 4462.48 6896.44 4460.37 6896.79 4458.26 6913.68 4437.85 6913.68 4437.85L6913.68 4430.1 6922.13 4426.23 6920.72 4411.45C6920.72 4411.45 6927.06 4395.97 6929.87 4396.32 6932.69 4397.02 6940.08 4405.47 6940.08 4405.47L6945.01 4404.77C6941.84 4401.95 6950.99 4399.49 6950.99 4399.49L6956.62 4394.56C6956.62 4394.56 6965.42 4395.97 6969.64 4395.97 6973.87 4395.97 6979.85 4390.34 6979.5 4387.87 6979.5 4385.41 6989.7 4381.54 6993.22 4382.94 6996.74 4384.35 6976.33 4368.87 6976.33 4368.87 6976.33 4368.87 6970.35 4361.12 6968.23 4361.12 6966.12 4361.12 6957.32 4353.38 6958.73 4347.75 6960.14 4342.12 6950.64 4345.64 6947.12 4346.34 6943.6 4347.05 6936.91 4341.77 6936.91 4341.77L6945.36 4333.67 6953.1 4319.24C6953.1 4319.24 6949.23 4309.04 6947.12 4309.04 6945.01 4309.04 6943.95 4298.13 6943.95 4298.13L6950.99 4287.92 6956.27 4292.5C6956.27 4292.5 6967.18 4293.2 6971.4 4294.61 6975.62 4296.02 6980.55 4280.18 6980.55 4280.18L6981.26 4270.68C6981.26 4270.68 6991.46 4269.62 6997.8 4268.92 7004.13 4267.86 7008 4263.29 7008 4263.29 7008 4263.29 7015.75 4258.36 7020.32 4259.06 7024.54 4259.77 7025.25 4254.13 7023.84 4250.26 7022.43 4246.39 7037.57 4244.63 7041.09 4244.63 7044.61 4244.63 7051.29 4244.63 7052.7 4249.21 7054.11 4253.78 7065.72 4257.65 7065.72 4257.65L7078.74 4269.97C7078.74 4269.97 7082.97 4262.93 7085.78 4262.93 7088.6 4262.93 7090.36 4272.44 7090.36 4274.55 7090.36 4277.01 7099.16 4282.29 7101.97 4282.29 7104.79 4282.29 7098.45 4292.5 7098.45 4292.5L7116.05 4302.35C7116.05 4302.35 7132.59 4306.93 7135.05 4307.63 7137.17 4308.33 7144.2 4330.51 7146.32 4330.51 7148.43 4330.51 7147.72 4316.43 7147.72 4316.43 7147.72 4316.43 7141.74 4303.05 7142.45 4299.18 7143.15 4295.31 7139.28 4288.27 7132.94 4286.87 7126.26 4285.46 7134.35 4275.96 7134.35 4275.96 7134.35 4275.96 7157.93 4264.69 7161.1 4263.99 7163.91 4263.29 7217.06 4235.83 7224.1 4231.61 7231.13 4227.74 7233.25 4209.44 7233.25 4209.44 7233.25 4209.44 7248.73 4199.58 7254.71 4196.06 7254.01 4195.01 7253.31 4193.95 7252.25 4193.25 7260.7 4185.51 7283.22 4183.4 7281.11 4171.43 7302.93 4157.7 7354.31 4162.63 7410.27 4159.11 7428.57 4158.05 7434.2 4157.35 7456.73 4157.35 7478.9 4157.35 7498.96 4151.72 7517.61 4151.72 7549.29 4151.72 7581.31 4157.35 7607.01 4149.26 7621.79 4147.85 7621.08 4152.07 7631.99 4152.42 7920.94 4140.81 7825.56 4135.18 8126.12 4124.97 8212.7 4123.92 8348.9 4114.06 8400.98 4112.3 8464.33 4114.06 8696.97 4125.32 8709.64 4122.51 8752.57 4122.51 8781.43 4117.93 8820.5 4123.21 8833.87 4123.21 8831.41 4116.88 8841.97 4115.82 8862.38 4115.12 8867.31 4120.05 8884.9 4120.4 8898.98 4120.4 8898.28 4120.4 8905.67 4118.29 8915.52 4117.58 8903.91 4118.99 8913.41 4118.29 8949.31 4117.23 8972.54 4114.41 9010.19 4124.97 9042.92 4116.88 9081.64 4122.16 9124.93 4118.99 9129.15 4123.21 9113.31 4119.69 9117.89 4124.27 9142.52 4127.08 9137.24 4118.29 9150.27 4116.88 9169.27 4116.53 9204.82 4111.95 9204.82 4111.95 9205.52 4111.95 9208.69 4110.54 9209.39 4110.54 9247.05 4105.26 9316.03 4104.21 9384.66 4108.43 9502.91 4102.8 9242.12 4105.97 9390.64 4105.26 9414.22 4105.26 9435.34 4108.43 9458.57 4108.78 9502.21 4109.49 9549.37 4106.32 9594.77 4105.62 9653.19 4104.56 9711.96 4107.73 9770.38 4107.38 9972.75 4107.02 9726.74 4105.62 9921.72 4108.43 9932.63 4109.14 9934.04 4113.71 9943.19 4115.12 10021.3 4117.93 10099.8 4113.36 10163.2 4120.4 10152.2 4120.4 10122 4122.16 10089.6 4123.56L10839.2 4151.02 10839.9 4148.55C10839.9 4148.55 10840.3 4148.55 10840.6 4148.9 10842 4149.96 10842.7 4151.02 10842.7 4151.02L10841.7 4149.96C10841.7 4149.96 10867.7 4151.02 10868.1 4161.57 10868.4 4172.48 10870.6 4177.41 10873 4184.45 10875.1 4191.49 10887.8 4208.38 10888.5 4214.72 10889.6 4221.05 10901.2 4239.35 10900.8 4247.1 10900.5 4255.19 10908.2 4270.68 10910 4277.01 10911.4 4283.35 10904 4294.26 10896.2 4298.13 10888.5 4302 10884.6 4322.76 10882.9 4328.75 10881.1 4334.73 10902.2 4336.84 10902.2 4336.84 10902.2 4336.84 10911 4345.99 10912.4 4348.1 10913.8 4350.21 10915.2 4375.2 10913.5 4381.89 10911.7 4388.58 10921.2 4392.45 10922.6 4397.37 10924 4402.3 10922.6 4403.01 10926.9 4407.93 10931.1 4412.86 10944.1 4428.7 10948.3 4435.03 10952.6 4441.37 10950.1 4446.65 10950.1 4450.17 10950.1 4453.68 10960.6 4468.47 10961 4475.5 10961 4482.54 10946.9 4488.18 10942 4492.75 10937.1 4497.33 10920.9 4530.06 10917 4541.67 10912.8 4553.28 10910.3 4576.86 10911.4 4587.77 10912.4 4598.68 10914.2 4607.13 10914.2 4613.47 10914.2 4619.8 10910.3 4617.34 10907.9 4623.67 10905.4 4630.01 10901.2 4656.05 10899.4 4662.03 10897.7 4668.02 10902.6 4679.98 10906.1 4684.21 10909.6 4688.43 10913.1 4694.76 10916.7 4700.4 10920.2 4706.03 10928.6 4701.45 10928.6 4701.45 10928.6 4701.45 10937.4 4704.62 10940.6 4707.43 10944.1 4710.25 10940.9 4721.86 10941.3 4726.79 10941.3 4731.72 10925.8 4731.01 10922.3 4731.72 10919.1 4732.42 10907.9 4751.43 10905.4 4757.41 10902.9 4763.04 10904.7 4771.84 10902.2 4782.4 10900.1 4793.31 10893.4 4806.33 10889.6 4811.61 10885.7 4816.89 10886 4842.58 10881.5 4846.45 10876.9 4850.32 10877.2 4869.68 10874.8 4874.61 10872.3 4879.88 10866.7 4886.22 10858.6 4881.64 10850.5 4876.72 10851.9 4899.24 10851.9 4899.24 10851.9 4899.24 10842 4896.78 10839.2 4896.78 10836.8 4896.78 10830.8 4902.06 10824.8 4900.65 10818.8 4899.24 10814.2 4903.11 10810.7 4907.69 10806.9 4912.26 10798.4 4908.04 10794.9 4905.93 10791.4 4903.82 10791 4908.04 10787.8 4909.8 10784.7 4911.56 10777.3 4925.29 10772.7 4925.29 10768.1 4925.29 10766 4925.29 10763.6 4926.34 10761.1 4927.04 10759.3 4938.66 10759 4941.47 10758.3 4944.29 10763.6 4955.55 10763.6 4960.48 10763.6 4965.41 10770.2 4966.81 10769.9 4968.93 10769.2 4971.04 10771 4975.96 10775.5 4980.89 10780.5 4985.82 10786.1 4983.36 10790.7 4984.06 10795.2 4984.41 10786.4 4992.86 10783.3 4992.86 10780.1 4992.86 10778.3 5001.66 10778.3 5001.66 10778.3 5001.66 10786.8 5018.55 10780.5 5021.72 10774.1 5024.88 10770.2 5016.44 10770.2 5016.44 10770.2 5016.44 10757.2 5005.53 10751.2 5005.53 10745.3 5005.53 10740.7 5006.58 10736.1 5002.36 10731.5 4998.14 10727.3 5009.75 10727.3 5009.75L10721.3 5003.42C10721.3 5003.42 10715.7 5009.4 10715.7 5012.92 10715.7 5016.44 10706.9 5008.34 10702.3 5006.23 10697.7 5004.12 10693.9 5010.81 10691.4 5009.4 10688.6 5007.99 10681.9 5006.23 10681.9 5006.23 10681.9 5006.23 10673.5 5007.99 10671.4 5009.4 10669.6 5010.81 10659.4 5002.01 10659.4 5002.01 10659.4 5002.01 10652.3 5010.1 10650.6 5011.51 10648.8 5012.92 10639.3 5010.45 10634 5010.81 10628.8 5010.81 10628.1 5026.64 10624.2 5030.52 10620.3 5034.03 10608 5019.6 10608 5014.68 10608 5009.75 10599.9 5012.92 10592.2 5013.62 10584.4 5014.68 10587.9 5027.35 10590.4 5032.98 10592.5 5038.61 10589.7 5050.22 10589.7 5050.22 10589.7 5050.22 10591.5 5059.37 10597.4 5060.78 10597.4 5060.78 10608.7 5066.06 10609.1 5072.04 10609.1 5077.68 10614 5077.68 10615.7 5078.38 10617.9 5079.08 10621.4 5090.35 10623.5 5095.27 10625.6 5100.2 10630.5 5112.17 10633.3 5114.98 10636.2 5117.8 10645 5113.93 10648.8 5125.19 10649.9 5128.71 10659.4 5142.08 10664.7 5141.73 10669.9 5141.73 10674.9 5149.12 10674.9 5153.69 10674.9 5157.92 10687.5 5157.57 10694.9 5160.03 10702.3 5162.49 10699.5 5176.92 10699.5 5176.92 10699.5 5176.92 10718.5 5192.06 10722.4 5194.17 10726.3 5196.28 10719.2 5200.85 10716 5201.56 10712.9 5202.26 10700.6 5191.35 10700.6 5191.35 10700.6 5191.35 10682.3 5176.22 10680.2 5172.7 10678 5169.18 10666.4 5171.64 10661.1 5172 10655.9 5172 10656.2 5164.96 10661.1 5162.14 10666.4 5158.97 10637.2 5169.53 10628.1 5170.94 10618.9 5172.7 10616.8 5155.45 10614.7 5151.93 10612.6 5148.42 10604.8 5151.58 10597.4 5148.06 10595 5147.01 10590.4 5143.49 10586.2 5139.26 10578.8 5139.97 10571 5139.97 10561.9 5139.97 10561.9 5144.19 10582 5141.02 10586.9 5143.84 10579.1 5149.47 10563 5151.93 10561.9 5159.68 10462.3 5162.14 10484.5 5154.75 10393 5159.68 10396.5 5163.55 10413.7 5162.49 10421.5 5164.96 10402.1 5169.88 10349.3 5167.07 10335.6 5161.44 10346.5 5158.62 10363.4 5162.84 10382.1 5161.44 10382.8 5155.81 10354.3 5156.86 10346.2 5158.97 10335.6 5158.97 10333.8 5155.81 10324.7 5155.1 10267 5149.82 10207.5 5154.4 10145.6 5149.47 10095.6 5145.25 10328.2 5131.52 10262.8 5129.41 10239.2 5128.71 10215.9 5131.87 10201.9 5125.89 10126.2 5125.19 10046.7 5124.13 9961.84 5121.67 9918.2 5120.61 9875.26 5116.04 9832.68 5115.68 9817.9 5115.68 9803.82 5117.44 9789.74 5117.44 9778.83 5117.44 9770.38 5113.93 9760.88 5113.57 9726.04 5111.46 9698.59 5113.22 9657.06 5113.93 9598.64 5115.33 9539.16 5110.76 9477.92 5109.35 9448.71 5109 9417.74 5111.46 9388.18 5111.11 9219.25 5109.7 9509.6 5109.35 9340.67 5109.35 9153.43 5109.35 9393.81 5112.17 9219.25 5114.28L9219.25 5114.98C9182.29 5117.44 9145.69 5119.91 9115.78 5122.02 9098.18 5123.08 8959.87 5127.3 8911.65 5130.11L8393.59 5162.84Z" fill="#2CB3A5" fill-rule="evenodd"/><path d="M9066.54 4611.51C9076.73 4625.22 9082 4641.75 9082 4662.14 9082 4689.92 9071.46 4711.37 9050.01 4726.49 9028.57 4741.62 8997.64 4749 8956.87 4749L8798 4749 8798 4429 8947.73 4429C8985.34 4429 9014.52 4436.38 9034.9 4451.15 9055.29 4465.92 9065.48 4486.32 9065.48 4512.34 9065.48 4528.17 9061.97 4542.23 9054.58 4554.54 9047.2 4566.85 9037.36 4576.34 9024.36 4583.02 9041.93 4589 9055.99 4598.49 9066.54 4612.21ZM8857.4 4475.42 8857.4 4563.68 8941.41 4563.68C8962.14 4563.68 8977.96 4559.81 8989.21 4552.43 9000.46 4545.04 9005.73 4534.14 9005.73 4519.73 9005.73 4505.31 9000.1 4494.06 8989.21 4486.67 8977.96 4479.29 8962.14 4475.42 8941.41 4475.42L8857.4 4475.42ZM9022.25 4656.17C9022.25 4625.22 8999.05 4610.1 8953.36 4610.1L8857.4 4610.1 8857.4 4702.58 8953.36 4702.58C8999.4 4702.58 9022.25 4687.11 9022.25 4656.52Z" fill="#FFFFFF" fill-rule="evenodd"/><path d="M9132 4428 9192 4428 9192 4749 9132 4749 9132 4428Z" fill="#FFFFFF" fill-rule="evenodd"/><path d="M9559.01 4749 9559.01 4536.29C9559.01 4536.29 9453.38 4712.31 9453.38 4712.31L9426.97 4712.31 9321.69 4539.12 9321.69 4749 9265 4749 9265 4428 9313.94 4428 9441.06 4640.71 9566.06 4428 9615 4428 9615 4749C9615 4749 9559.01 4749 9559.01 4749Z" fill="#FFFFFF" fill-rule="evenodd"/><path d="M9951 4676.21 9894.34 4676.21 9894.34 4749 9836.62 4749 9836.62 4676.21 9661 4676.21 9661 4635.07 9818.67 4429 9882.37 4429 9733.5 4625.92 9838.38 4625.92 9838.38 4561.57 9894.34 4561.57 9894.34 4625.92 9951 4625.92 9951 4676.21Z" fill="#FFFFFF" fill-rule="evenodd"/><path d="M10046.6 4731.91C10020.5 4717.85 10000 4698.17 9985.21 4673.21 9970.4 4648.25 9963 4620.13 9963 4588.5 9963 4556.87 9970.4 4529.1 9985.57 4503.79 10000.7 4478.48 10021.2 4459.15 10047.3 4445.09 10073.4 4431.03 10102.6 4424 10135.1 4424 10161.5 4424 10185.1 4428.57 10207 4437.71 10228.9 4446.85 10246.8 4460.2 10262 4477.43L10223.6 4513.63C10200.3 4488.68 10171.7 4476.02 10137.9 4476.02 10116 4476.02 10096.3 4480.94 10078.7 4490.43 10061.4 4499.92 10047.6 4513.28 10037.8 4530.5 10027.9 4547.73 10022.9 4567.06 10022.9 4588.5 10022.9 4609.94 10027.9 4629.62 10037.8 4646.5 10047.6 4663.72 10061 4677.08 10078.7 4686.57 10095.9 4696.06 10115.7 4700.98 10137.9 4700.98 10171.7 4700.98 10200.3 4688.32 10223.6 4663.02L10262 4699.57C10247.2 4716.8 10228.5 4730.15 10206.6 4739.29 10184.8 4748.43 10160.8 4753 10134.4 4753 10101.9 4753 10072.7 4745.97 10046.6 4731.91Z" fill="#FFFFFF" fill-rule="evenodd"/><path d="M10545 4699.07 10545 4749 10305 4749 10305 4429 10538.3 4429 10538.3 4478.93 10364.4 4478.93 10364.4 4562.27 10518.6 4562.27 10518.6 4611.15 10364.4 4611.15 10364.4 4699.42 10544.6 4699.42Z" fill="#FFFFFF" fill-rule="evenodd"/></g></svg>