<svg width="192" height="54" xmlns="http://www.w3.org/2000/svg" xmlns:xlink="http://www.w3.org/1999/xlink" xml:space="preserve" overflow="hidden"><g transform="translate(-823 -475)"><path d="M-5.61219 3.61322-5.61219 23.3467-10.3628 23.3467-10.3628 3.61322ZM-4.90054-2.13759C-4.90054-1.72727-4.9839-1.34261-5.15058-0.983581-5.31727-0.624556-5.54167-0.310412-5.82375-0.0411434-6.09303 0.228125-6.41358 0.446104-6.78543 0.612792-7.15728 0.766659-7.55477 0.843593-7.97789 0.843593-8.38822 0.843593-8.77929 0.766659-9.15114 0.612792-9.51017 0.446104-9.8243 0.228125-10.0936-0.0411434-10.3628-0.310412-10.5808-0.624556-10.7475-0.983581-10.9014-1.34261-10.9783-1.72727-10.9783-2.13759-10.9783-2.56072-10.9014-2.9582-10.7475-3.33005-10.5808-3.7019-10.3628-4.02246-10.0936-4.29174-9.8243-4.56099-9.51017-4.77255-9.15114-4.92642-8.77929-5.09313-8.38822-5.17646-7.97789-5.17646-7.55477-5.17646-7.15728-5.09313-6.78543-4.92642-6.41358-4.77255-6.09303-4.56099-5.82375-4.29174-5.54167-4.02246-5.31727-3.7019-5.15058-3.33005-4.9839-2.9582-4.90054-2.56072-4.90054-2.13759Z" fill="#3AA5FF" transform="matrix(1 0 0 1.01297 900.495 492.972)"/><path d="M-0.246067 23.3467-0.246067 3.61322 2.65817 3.61322C3.27364 3.61322 3.67755 3.90171 3.8699 4.4787L4.19685 6.03662C4.59434 5.62631 5.01106 5.25446 5.44703 4.92109 5.89581 4.5877 6.36381 4.2992 6.85107 4.05558 7.35113 3.81196 7.88327 3.62604 8.44744 3.49781 9.01161 3.36957 9.62708 3.30548 10.2938 3.30548 11.3709 3.30548 12.3262 3.49138 13.1596 3.86323 13.9931 4.22227 14.6855 4.73517 15.2368 5.40191 15.801 6.05586 16.2242 6.84443 16.5062 7.76764 16.8012 8.678 16.9486 9.68456 16.9486 10.7873L16.9486 23.3467 12.198 23.3467 12.198 10.7873C12.198 9.58199 11.9159 8.65236 11.3517 7.99844 10.8003 7.33167 9.96688 6.9983 8.85135 6.9983 8.03071 6.9983 7.26138 7.1842 6.54334 7.55605 5.82527 7.9279 5.14571 8.43438 4.50458 9.07551L4.50458 23.3467Z" fill="#3AA5FF" transform="matrix(1 0 0 1.01297 900.495 492.972)"/><path d="M22.4686 23.3467 22.4686 7.19062 20.7569 6.92137C20.385 6.85725 20.0837 6.72902 19.8529 6.5367 19.6349 6.34435 19.5259 6.0751 19.5259 5.72888L19.5259 3.7863 22.4686 3.7863 22.4686 2.32457C22.4686 1.19621 22.6353 0.183247 22.9687-0.714313 23.3149-1.61187 23.8021-2.3748 24.4305-3.00308 25.0717-3.63139 25.8473-4.11221 26.7577-4.4456 27.668-4.77898 28.694-4.94566 29.835-4.94566 30.7454-4.94566 31.5918-4.82385 32.3739-4.58023L32.2777-2.19529C32.2521-1.82344 32.0788-1.59264 31.7585-1.50288 31.4379-1.41313 31.0659-1.36825 30.6429-1.36825 30.0785-1.36825 29.5721-1.30414 29.1233-1.17592 28.6874-1.06051 28.3155-0.848948 28.0077-0.541213 27.7-0.246299 27.463 0.151191 27.2963 0.651259 27.1425 1.13851 27.0654 1.74757 27.0654 2.47843L27.0654 3.7863 32.2007 3.7863 32.2007 7.17138 27.2193 7.17138 27.2193 23.3467Z" fill="#3AA5FF" transform="matrix(1 0 0 1.01297 900.495 492.972)"/><path d="M43.5292 3.30548C45.0039 3.30548 46.3373 3.54268 47.5298 4.0171 48.735 4.49152 49.761 5.16471 50.6071 6.03662 51.4535 6.90852 52.1073 7.97278 52.5689 9.22938 53.0305 10.486 53.2614 11.89 53.2614 13.4415 53.2614 15.0058 53.0305 16.4162 52.5689 17.6728 52.1073 18.9294 51.4535 20.0001 50.6071 20.8848 49.761 21.7696 48.735 22.4491 47.5298 22.9236 46.3373 23.398 45.0039 23.6352 43.5292 23.6352 42.0547 23.6352 40.7148 23.398 39.5095 22.9236 38.3043 22.4491 37.272 21.7696 36.4128 20.8848 35.5666 20.0001 34.9063 18.9294 34.4319 17.6728 33.9703 16.4162 33.7394 15.0058 33.7394 13.4415 33.7394 11.89 33.9703 10.486 34.4319 9.22938 34.9063 7.97278 35.5666 6.90852 36.4128 6.03662 37.272 5.16471 38.3043 4.49152 39.5095 4.0171 40.7148 3.54268 42.0547 3.30548 43.5292 3.30548ZM43.5292 19.9809C45.1704 19.9809 46.3822 19.4295 47.1644 18.3268 47.9594 17.2241 48.3568 15.6085 48.3568 13.4799 48.3568 11.3515 47.9594 9.72943 47.1644 8.61391 46.3822 7.49836 45.1704 6.94058 43.5292 6.94058 41.8624 6.94058 40.6314 7.50478 39.8364 8.63312 39.0414 9.74867 38.644 11.3643 38.644 13.4799 38.644 15.5956 39.0414 17.2112 39.8364 18.3268 40.6314 19.4295 41.8624 19.9809 43.5292 19.9809Z" fill="#3AA5FF" transform="matrix(1 0 0 1.01297 900.495 492.972)"/><path d="M60.3136 6.4611C62.2669 3.8691 64.571 2.59815 67.2255 2.64824 69.179 2.69833 70.6002 3.38075 71.4892 4.69555 72.3783 6.01033 72.6913 7.81971 72.4284 10.1237L70.212 23.3467 67.9956 23.3467 70.212 10.0862C70.2871 9.37241 70.2997 8.68372 70.2495 8.02008 70.0368 5.79118 68.8221 4.64546 66.6057 4.58285 65.2909 4.55779 64.0638 4.95223 62.9242 5.76615 61.7849 6.56754 60.7832 7.78215 59.9191 9.40997L57.5149 23.3467 55.2985 23.3467 60.3136-5.50344 62.53-5.50344Z" fill="#3AA5FF" transform="matrix(1 0 0 1.01297 900.495 492.972)"/><path d="M89.4454 20.7923C87.8302 22.8208 85.6012 23.7975 82.7589 23.7224 80.8429 23.6848 79.4154 22.9961 78.4765 21.6563 77.5373 20.3039 77.1993 18.4319 77.4622 16.0403L79.6408 3.02389 81.8572 3.02389 79.6973 16.0966C79.6221 16.7728 79.6158 17.4427 79.6786 18.1063 79.7661 19.2584 80.1104 20.1474 80.7116 20.7735 81.3125 21.3996 82.139 21.7314 83.1909 21.769 84.6935 21.8316 86.0834 21.4872 87.3606 20.7359 88.6378 19.9721 89.4643 18.9766 89.8399 17.7495L92.3568 3.02389 94.6108 3.02389 91.0796 23.3467 88.9007 23.3467Z" fill="#3AA5FF" transform="matrix(1 0 0 1.01297 900.495 492.972)"/><path d="M114.295 13.2792C113.857 16.5098 112.824 19.0768 111.196 20.9801 109.58 22.8834 107.577 23.8037 105.185 23.7411 103.858 23.7161 102.687 23.4218 101.673 22.8583 100.671 22.2949 99.9011 21.531 99.3627 20.5669L98.724 23.3467 96.6205 23.3467 101.635-5.50344 103.852-5.50344 101.729 5.97277C103.47 3.68128 105.667 2.5731 108.322 2.64824 110.263 2.69833 111.759 3.41833 112.811 4.80822 113.863 6.19814 114.408 8.12025 114.445 10.5745 114.458 11.3759 114.42 12.146 114.332 12.8848ZM112.097 12.8472 112.229 11.0628C112.266 9.02181 111.91 7.44406 111.158 6.32962 110.407 5.21518 109.286 4.63294 107.796 4.58285 105.054 4.53276 102.906 5.92266 101.354 8.75258L99.8134 17.9561C100.177 19.1707 100.796 20.1098 101.673 20.7735 102.562 21.4246 103.639 21.769 104.904 21.8065 106.769 21.8441 108.328 21.1241 109.58 19.6465 110.845 18.1564 111.684 15.89 112.097 12.8472Z" fill="#3AA5FF" transform="matrix(1 0 0 1.01297 900.495 492.972)"/><path d="M-4593.72 730.814C-4593.72 745.341-4605.49 757.118-4620.02 757.118-4634.55 757.118-4646.32 745.341-4646.32 730.814-4646.32 716.287-4634.55 704.511-4620.02 704.511-4605.49 704.511-4593.72 716.287-4593.72 730.814Z" stroke="#3AA5FF" stroke-width="0.701427" stroke-linecap="square" fill="#FFFFFF" transform="matrix(1 0 0 1.01297 5469.73 -238.296)"/><path d="M-4674.22 674.208C-4674.22 677.864-4677.18 680.827-4680.84 680.827-4684.5 680.827-4687.46 677.864-4687.46 674.208-4687.46 670.552-4684.5 667.589-4680.84 667.589-4677.18 667.589-4674.22 670.552-4674.22 674.208Z" stroke="#999999" stroke-width="0.484622" stroke-linecap="square" fill="#3AA5FF" transform="matrix(1 0 0 1.01297 5534.12 -180.611)"/><path d="M-4683.73 659.679C-4683.73 661.616-4685.3 663.185-4687.24 663.185-4689.17 663.185-4690.74 661.616-4690.74 659.679-4690.74 657.743-4689.17 656.173-4687.24 656.173-4685.3 656.173-4683.73 657.743-4683.73 659.679Z" stroke="#999999" stroke-width="0.256711" stroke-linecap="square" fill="#3AA5FF" transform="matrix(1 0 0 1.01297 5534.12 -180.611)"/><path d="M-4674.77 688.051C-4674.77 689.988-4676.33 691.558-4678.27 691.558-4680.21 691.558-4681.78 689.988-4681.78 688.051-4681.78 686.115-4680.21 684.545-4678.27 684.545-4676.33 684.545-4674.77 686.115-4674.77 688.051Z" stroke="#999999" stroke-width="0.256711" stroke-linecap="square" fill="#3AA5FF" transform="matrix(1 0 0 1.01297 5534.12 -180.611)"/><path d="M-4694.34 682.958C-4694.34 684.894-4695.91 686.464-4697.85 686.464-4699.79 686.464-4701.36 684.894-4701.36 682.958-4701.36 681.021-4699.79 679.452-4697.85 679.452-4695.91 679.452-4694.34 681.021-4694.34 682.958Z" stroke="#999999" stroke-width="0.256711" stroke-linecap="square" fill="#3AA5FF" transform="matrix(1 0 0 1.01297 5534.12 -180.611)"/><path d="M-4687.24 659.679-4680.84 674.208" stroke="#3AA5FF" stroke-width="0.969243" fill="none" transform="matrix(1 0 0 1.01297 5534.12 -180.611)"/><path d="M-4697.85 682.958-4680.84 674.208" stroke="#3AA5FF" stroke-width="0.969243" fill="none" transform="matrix(1 0 0 1.01297 5534.12 -180.611)"/><path d="M-4678.27 688.051-4680.84 674.208" stroke="#3AA5FF" stroke-width="0.969243" fill="none" transform="matrix(1 0 0 1.01297 5534.12 -180.611)"/></g></svg>