<svg width="1243" height="201" xmlns="http://www.w3.org/2000/svg" xmlns:xlink="http://www.w3.org/1999/xlink" xml:space="preserve" overflow="hidden"><defs><clipPath id="clip0"><rect x="1412" y="1095" width="1243" height="201"/></clipPath></defs><g clip-path="url(#clip0)" transform="translate(-1412 -1095)"><path d="M1935 1097 2135 1097 2135 1231 1935 1231Z" fill="#164194" fill-rule="evenodd"/><path d="M2137 1095 1933 1095 1933 1234 2137 1234 2137 1095ZM2132.81 1229.81 1937.19 1229.81 1937.19 1099.2 2132.81 1099.2 2132.81 1229.81Z" fill="#FFFFFF" fill-rule="evenodd"/><path d="M2070 1141.02 2071.5 1136 2073.04 1141.02 2078 1141.02 2073.96 1144.06 2075.5 1149 2071.5 1145.92 2067.54 1149 2069.04 1144.06 2065 1141.02 2070 1141.02Z" fill="#FFED00" fill-rule="evenodd"/><path d="M2032.96 1119.64 2034.5 1115 2036 1119.6 2041 1119.6 2036.96 1122.44 2038.46 1127 2034.5 1124.2 2030.5 1127 2032.04 1122.44 2028 1119.6 2032.96 1119.64Z" fill="#FFED00" fill-rule="evenodd"/><path d="M1985 1162.02 1990.34 1162.02 1992 1157 1993.62 1162.02 1999 1162.02 1994.65 1165.06 1996.27 1170 1992 1166.96 1987.69 1170 1989.35 1165.06 1985 1162.02Z" fill="#FFED00" fill-rule="evenodd"/><path d="M2002.27 1192 1998 1188.93 1993.69 1192 1995.35 1187.07 1991 1184.01 1996.34 1184.01 1998 1179 1999.62 1184.01 2005 1184.01 2000.65 1187.07 2002.27 1192Z" fill="#FFED00" fill-rule="evenodd"/><path d="M2000.66 1144.1 2002.27 1149 1997.98 1145.96 1993.73 1149 1995.38 1144.1 1991 1141.02 1996.37 1141.02 1997.98 1136 1999.63 1141.02 2005 1141.02 2000.66 1144.1Z" fill="#FFED00" fill-rule="evenodd"/><path d="M2012 1124.98 2013.5 1120 2015.04 1124.98 2020 1124.98 2015.96 1128.06 2017.5 1133 2013.5 1129.92 2009.54 1133 2011.04 1128.06 2007 1124.98 2012 1124.98Z" fill="#FFED00" fill-rule="evenodd"/><path d="M2017.5 1207 2013.5 1203.96 2009.54 1207 2011.04 1202.06 2007 1199.02 2012 1199.02 2013.5 1194 2015.04 1199.02 2020 1199.02 2015.96 1202.06 2017.5 1207Z" fill="#FFED00" fill-rule="evenodd"/><path d="M2038.46 1213 2034.5 1209.96 2030.5 1213 2032.04 1208.06 2028 1205.02 2032.96 1205.02 2034.5 1200 2036.04 1205.02 2041 1205.02 2036.96 1208.06 2038.46 1213Z" fill="#FFED00" fill-rule="evenodd"/><path d="M2060.27 1207 2056.02 1203.96 2051.73 1207 2053.34 1202.06 2049 1199.02 2054.37 1199.02 2056.02 1194 2057.63 1199.02 2063 1199.02 2058.66 1202.06 2060.27 1207Z" fill="#FFED00" fill-rule="evenodd"/><path d="M2058.65 1128.06 2060.31 1133 2056 1129.92 2051.73 1133 2053.35 1128.06 2049 1124.98 2054.38 1124.98 2056 1120 2057.66 1124.98 2063 1124.98 2058.65 1128.06Z" fill="#FFED00" fill-rule="evenodd"/><path d="M2075.5 1192 2071.5 1188.93 2067.54 1192 2069.04 1187.07 2065 1184.01 2070 1184.01 2071.5 1179 2073.04 1184.01 2078 1184.01 2073.96 1187.07 2075.5 1192Z" fill="#FFED00" fill-rule="evenodd"/><path d="M2081.47 1170 2077.48 1166.92 2073.53 1170 2075.03 1165.06 2071 1161.98 2075.99 1162.02 2077.48 1157 2079.01 1161.98 2084 1161.98 2079.94 1165.06 2081.47 1170Z" fill="#FFED00" fill-rule="evenodd"/><path d="M2192.73 1141.72 2199 1143.7C2198.05 1147.17 2196.42 1149.78 2194.19 1151.47 2191.97 1153.17 2189.11 1154 2185.66 1154 2181.41 1154 2177.87 1152.54 2175.13 1149.66 2172.39 1146.78 2171 1142.79 2171 1137.78 2171 1132.45 2172.39 1128.34 2175.13 1125.42 2177.87 1122.5 2181.53 1121 2186.01 1121 2189.94 1121 2193.12 1122.14 2195.58 1124.47 2197.05 1125.86 2198.13 1127.79 2198.88 1130.36L2192.45 1131.89C2192.05 1130.24 2191.26 1128.93 2190.06 1127.99 2188.87 1127.04 2187.4 1126.57 2185.66 1126.57 2183.27 1126.57 2181.37 1127.43 2179.86 1129.13 2178.35 1130.83 2177.63 1133.59 2177.63 1137.38 2177.63 1141.41 2178.35 1144.29 2179.82 1145.99 2181.29 1147.68 2183.19 1148.55 2185.5 1148.55 2187.2 1148.55 2188.71 1148 2189.94 1146.93 2191.18 1145.83 2192.09 1144.13 2192.61 1141.8" fill="#004F9D" fill-rule="evenodd"/><path d="M2209.57 1142C2209.57 1144.27 2210.15 1146.04 2211.26 1147.22 2212.42 1148.43 2213.83 1149.02 2215.48 1149.02 2217.13 1149.02 2218.54 1148.43 2219.69 1147.22 2220.81 1146 2221.39 1144.24 2221.39 1141.92 2221.39 1139.61 2220.81 1137.96 2219.69 1136.75 2218.58 1135.53 2217.17 1134.94 2215.48 1134.94 2213.79 1134.94 2212.42 1135.53 2211.26 1136.75 2210.11 1137.96 2209.57 1139.69 2209.57 1141.96M2203 1141.65C2203 1139.65 2203.54 1137.69 2204.57 1135.8 2205.6 1133.92 2207.09 1132.47 2209.03 1131.49 2210.98 1130.51 2213.08 1130 2215.48 1130 2219.12 1130 2222.13 1131.14 2224.49 1133.37 2226.84 1135.65 2228 1138.47 2228 1141.92 2228 1145.37 2226.8 1148.27 2224.45 1150.55 2222.09 1152.82 2219.12 1154 2215.52 1154 2213.29 1154 2211.18 1153.53 2209.16 1152.59 2207.13 1151.65 2205.6 1150.24 2204.57 1148.39 2203.54 1146.55 2203 1144.31 2203 1141.69" fill="#004F9D" fill-rule="evenodd"/><path d="M2232 1139 2244 1139 2244 1145 2232 1145Z" fill="#004F9D" fill-rule="evenodd"/><path d="M2245 1130.19 2248.25 1130.19 2248.25 1128.47C2248.25 1126.57 2248.44 1125.13 2248.85 1124.19 2249.23 1123.26 2249.99 1122.48 2251.05 1121.9 2252.1 1121.31 2253.46 1121 2255.09 1121 2256.71 1121 2258.38 1121.27 2260 1121.78L2259.21 1125.98C2258.26 1125.75 2257.39 1125.63 2256.52 1125.63 2255.66 1125.63 2255.09 1125.83 2254.71 1126.26 2254.33 1126.64 2254.14 1127.46 2254.14 1128.59L2254.14 1130.19 2258.53 1130.19 2258.53 1134.94 2254.14 1134.94 2254.14 1153 2248.29 1153 2248.29 1134.94 2245.04 1134.94 2245.04 1130.19Z" fill="#004F9D" fill-rule="evenodd"/><path d="M2277.33 1153.48 2277.33 1149.97C2276.5 1151.2 2275.4 1152.2 2274.02 1152.92 2272.64 1153.64 2271.22 1154 2269.68 1154 2268.15 1154 2266.73 1153.64 2265.51 1152.96 2264.28 1152.28 2263.38 1151.28 2262.83 1150.05 2262.28 1148.81 2262 1147.05 2262 1144.85L2262 1130.04 2268.11 1130.04 2268.11 1140.78C2268.11 1144.06 2268.22 1146.09 2268.46 1146.81 2268.7 1147.53 2269.09 1148.13 2269.68 1148.57 2270.27 1149.01 2271.02 1149.21 2271.93 1149.21 2272.95 1149.21 2273.9 1148.93 2274.73 1148.33 2275.55 1147.73 2276.11 1147.01 2276.42 1146.17 2276.74 1145.33 2276.89 1143.22 2276.89 1139.86L2276.89 1130 2283 1130 2283 1153.4 2277.33 1153.4Z" fill="#004F9D" fill-rule="evenodd"/><path d="M2311 1153 2304.9 1153 2304.9 1141.52C2304.9 1139.1 2304.79 1137.53 2304.51 1136.8 2304.24 1136.07 2303.84 1135.53 2303.25 1135.15 2302.66 1134.76 2301.96 1134.57 2301.13 1134.57 2300.07 1134.57 2299.12 1134.84 2298.3 1135.41 2297.47 1135.99 2296.88 1136.72 2296.57 1137.64 2296.25 1138.56 2296.1 1140.29 2296.1 1142.82L2296.1 1153 2290 1153 2290 1130.5 2295.66 1130.5 2295.66 1133.8C2297.67 1131.27 2300.19 1130 2303.25 1130 2304.59 1130 2305.81 1130.23 2306.95 1130.69 2308.05 1131.15 2308.92 1131.77 2309.47 1132.5 2310.06 1133.23 2310.45 1134.07 2310.65 1134.99 2310.88 1135.91 2311 1137.26 2311 1138.98L2311 1152.96Z" fill="#004F9D" fill-rule="evenodd"/><path d="M2322.31 1141.06C2322.31 1143.55 2322.67 1145.4 2323.36 1146.52 2324.36 1148.13 2325.77 1148.98 2327.58 1148.98 2329.03 1148.98 2330.23 1148.37 2331.24 1147.17 2332.24 1145.96 2332.77 1144.11 2332.77 1141.7 2332.77 1139.01 2332.28 1137.04 2331.32 1135.87 2330.35 1134.67 2329.11 1134.1 2327.58 1134.1 2326.05 1134.1 2324.85 1134.71 2323.88 1135.87 2322.92 1137.04 2322.39 1138.81 2322.39 1141.14M2339 1153.44 2333.21 1153.44 2333.21 1149.98C2332.24 1151.31 2331.12 1152.31 2329.79 1153 2328.47 1153.68 2327.18 1154 2325.85 1154 2323.16 1154 2320.82 1152.91 2318.89 1150.74 2316.96 1148.57 2316 1145.52 2316 1141.62 2316 1137.72 2316.92 1134.59 2318.81 1132.54 2320.7 1130.45 2323.08 1129.4 2325.93 1129.4 2328.55 1129.4 2330.84 1130.49 2332.77 1132.7L2332.77 1121 2339 1121 2339 1153.48Z" fill="#004F9D" fill-rule="evenodd"/><path d="M2358.87 1140.04C2358.83 1138.27 2358.35 1136.94 2357.46 1136.04 2356.58 1135.14 2355.49 1134.67 2354.2 1134.67 2352.83 1134.67 2351.7 1135.14 2350.82 1136.12 2349.93 1137.1 2349.49 1138.39 2349.49 1140.04L2358.83 1140.04ZM2358.51 1146.2 2364.71 1147.22C2363.91 1149.45 2362.66 1151.14 2360.93 1152.27 2359.19 1153.45 2357.06 1154 2354.44 1154 2350.33 1154 2347.31 1152.71 2345.34 1150.08 2343.77 1148 2343 1145.33 2343 1142.16 2343 1138.35 2344.01 1135.37 2346.06 1133.22 2348.12 1131.06 2350.69 1130 2353.8 1130 2357.3 1130 2360.08 1131.14 2362.1 1133.37 2364.11 1135.65 2365.08 1139.1 2365 1143.73L2349.36 1143.73C2349.41 1145.53 2349.93 1146.94 2350.9 1147.92 2351.86 1148.9 2353.07 1149.41 2354.48 1149.41 2355.45 1149.41 2356.29 1149.14 2356.94 1148.63 2357.62 1148.12 2358.11 1147.26 2358.47 1146.12" fill="#004F9D" fill-rule="evenodd"/><path d="M2374.34 1141.06C2374.34 1143.55 2374.7 1145.4 2375.39 1146.52 2376.39 1148.13 2377.79 1148.98 2379.6 1148.98 2381.05 1148.98 2382.25 1148.37 2383.25 1147.17 2384.26 1145.96 2384.78 1144.11 2384.78 1141.7 2384.78 1139.01 2384.3 1137.04 2383.33 1135.87 2382.37 1134.67 2381.13 1134.1 2379.6 1134.1 2378.08 1134.1 2376.87 1134.71 2375.91 1135.87 2374.94 1137.04 2374.42 1138.81 2374.42 1141.14M2391 1153.44 2385.22 1153.44 2385.22 1149.98C2384.26 1151.31 2383.13 1152.31 2381.81 1153 2380.48 1153.68 2379.2 1154 2377.83 1154 2375.14 1154 2372.82 1152.91 2370.89 1150.74 2368.96 1148.57 2368 1145.52 2368 1141.62 2368 1137.72 2368.92 1134.59 2370.81 1132.54 2372.7 1130.45 2375.06 1129.4 2377.91 1129.4 2380.52 1129.4 2382.81 1130.49 2384.74 1132.7L2384.74 1121 2390.96 1121 2390.96 1153.48Z" fill="#004F9D" fill-rule="evenodd"/><path d="M2415.88 1141.14C2415.88 1143.59 2416.27 1145.4 2417 1146.56 2418.04 1148.21 2419.38 1149.06 2421.12 1149.06 2422.42 1149.06 2423.54 1148.45 2424.5 1147.29 2425.46 1146.12 2425.88 1144.27 2425.88 1141.74 2425.88 1139.05 2425.42 1137.12 2424.5 1135.91 2423.58 1134.71 2422.38 1134.14 2420.92 1134.14 2419.46 1134.14 2418.31 1134.71 2417.35 1135.87 2416.38 1137.04 2415.92 1138.81 2415.92 1141.18M2410 1153.48 2410 1121 2415.96 1121 2415.96 1132.7C2417.81 1130.53 2419.96 1129.4 2422.5 1129.4 2425.23 1129.4 2427.5 1130.45 2429.31 1132.54 2431.12 1134.63 2432 1137.6 2432 1141.46 2432 1145.32 2431.08 1148.57 2429.27 1150.74 2427.42 1152.91 2425.19 1154 2422.58 1154 2421.31 1154 2420.04 1153.68 2418.77 1153 2417.54 1152.31 2416.46 1151.35 2415.54 1150.02L2415.54 1153.48 2410 1153.48Z" fill="#004F9D" fill-rule="evenodd"/><path d="M2434 1130 2440.57 1130 2446.14 1146.68 2451.59 1130 2458 1130 2449.76 1152.61 2448.29 1156.7C2447.73 1158.07 2447.21 1159.11 2446.74 1159.83 2446.26 1160.55 2445.7 1161.16 2445.06 1161.6 2444.43 1162.04 2443.63 1162.4 2442.72 1162.64 2441.8 1162.88 2440.73 1163 2439.57 1163 2438.42 1163 2437.22 1162.88 2436.07 1162.64L2435.51 1157.79C2436.47 1157.99 2437.34 1158.07 2438.14 1158.07 2439.57 1158.07 2440.65 1157.63 2441.32 1156.79 2442 1155.94 2442.56 1154.86 2442.92 1153.54L2434.04 1130Z" fill="#004F9D" fill-rule="evenodd"/><path d="M2184.51 1184.16 2184.51 1189.09 2180.21 1189.09 2180.21 1198.49C2180.21 1200.4 2180.25 1201.51 2180.33 1201.79L2180.9 1202.59C2181.19 1202.79 2181.55 1202.91 2181.96 1202.91 2182.52 1202.91 2183.38 1202.71 2184.47 1202.31L2185 1207.08C2183.54 1207.72 2181.88 1208 2180.05 1208 2178.91 1208 2177.9 1207.8 2176.97 1207.44 2176.07 1207.08 2175.38 1206.61 2174.98 1206.01 2174.57 1205.41 2174.25 1204.62 2174.08 1203.62 2173.96 1202.91 2173.88 1201.47 2173.88 1199.28L2173.88 1189.13 2171 1189.13 2171 1184.2 2173.88 1184.2 2173.88 1179.58 2180.17 1176 2180.17 1184.24 2184.47 1184.24Z" fill="#004F9D" fill-rule="evenodd"/><path d="M2195.11 1175 2195.11 1186.76C2197.08 1184.47 2199.44 1183.28 2202.16 1183.28 2203.58 1183.28 2204.84 1183.55 2205.94 1184.07 2207.08 1184.58 2207.91 1185.26 2208.5 1186.09 2209.09 1186.88 2209.45 1187.79 2209.68 1188.78 2209.88 1189.77 2210 1191.32 2210 1193.38L2210 1207 2203.89 1207 2203.89 1194.76C2203.89 1192.35 2203.78 1190.8 2203.54 1190.13 2203.3 1189.46 2202.91 1188.94 2202.32 1188.58 2201.73 1188.19 2200.98 1187.99 2200.11 1187.99 2199.09 1187.99 2198.18 1188.23 2197.39 1188.74 2196.6 1189.26 2196.01 1189.97 2195.66 1190.96 2195.3 1191.95 2195.11 1193.42 2195.11 1195.4L2195.11 1207 2189 1207 2189 1175 2195.11 1175Z" fill="#004F9D" fill-rule="evenodd"/><path d="M2229.87 1193.46C2229.83 1191.62 2229.35 1190.23 2228.46 1189.29 2227.58 1188.35 2226.49 1187.86 2225.24 1187.86 2223.87 1187.86 2222.74 1188.35 2221.86 1189.37 2220.97 1190.39 2220.53 1191.74 2220.53 1193.46L2229.87 1193.46ZM2229.51 1199.87 2235.71 1200.93C2234.91 1203.26 2233.66 1205.02 2231.93 1206.2 2230.19 1207.43 2228.06 1208 2225.44 1208 2221.33 1208 2218.31 1206.65 2216.34 1203.92 2214.77 1201.75 2214 1198.97 2214 1195.66 2214 1191.7 2215.01 1188.6 2217.06 1186.35 2219.12 1184.1 2221.69 1183 2224.8 1183 2228.3 1183 2231.08 1184.18 2233.1 1186.51 2235.11 1188.88 2236.08 1192.48 2236 1197.3L2220.36 1197.3C2220.41 1199.18 2220.93 1200.65 2221.9 1201.67 2222.86 1202.69 2224.07 1203.22 2225.48 1203.22 2226.45 1203.22 2227.29 1202.93 2227.94 1202.4 2228.62 1201.87 2229.11 1200.97 2229.47 1199.79" fill="#004F9D" fill-rule="evenodd"/><path d="M2254 1207 2254 1175 2277.42 1175 2277.42 1180.42 2260.4 1180.42 2260.4 1187.5 2276.21 1187.5 2276.21 1192.88 2260.4 1192.88 2260.4 1201.58 2278 1201.58 2278 1207 2254 1207Z" fill="#004F9D" fill-rule="evenodd"/><path d="M2299.33 1207.48 2299.33 1203.96C2298.5 1205.2 2297.4 1206.2 2296.02 1206.92 2294.64 1207.64 2293.22 1208 2291.68 1208 2290.15 1208 2288.73 1207.64 2287.51 1206.96 2286.28 1206.28 2285.38 1205.28 2284.83 1204.04 2284.28 1202.8 2284 1201.08 2284 1198.88L2284 1184.04 2290.11 1184.04 2290.11 1194.8C2290.11 1198.08 2290.22 1200.12 2290.46 1200.84 2290.7 1201.56 2291.09 1202.16 2291.68 1202.6 2292.27 1203.04 2293.02 1203.24 2293.93 1203.24 2294.95 1203.24 2295.9 1202.96 2296.73 1202.36 2297.55 1201.76 2298.11 1201.04 2298.42 1200.2 2298.74 1199.36 2298.89 1197.24 2298.89 1193.88L2298.89 1184 2305 1184 2305 1207.44 2299.33 1207.44Z" fill="#004F9D" fill-rule="evenodd"/><path d="M2317.13 1207 2311 1207 2311 1183.56 2316.7 1183.56 2316.7 1186.88C2317.69 1185.32 2318.56 1184.28 2319.31 1183.76 2320.1 1183.28 2320.97 1183 2321.96 1183 2323.35 1183 2324.69 1183.4 2326 1184.16L2324.1 1189.56C2323.07 1188.88 2322.12 1188.56 2321.21 1188.56 2320.3 1188.56 2319.63 1188.8 2319.03 1189.28 2318.44 1189.76 2317.97 1190.6 2317.65 1191.88 2317.29 1193.12 2317.13 1195.76 2317.13 1199.72L2317.13 1206.96Z" fill="#004F9D" fill-rule="evenodd"/><path d="M2333.31 1195.52C2333.31 1197.89 2333.86 1199.73 2334.93 1200.96 2336.04 1202.23 2337.39 1202.84 2338.98 1202.84 2340.57 1202.84 2341.92 1202.23 2343.03 1200.96 2344.1 1199.69 2344.65 1197.85 2344.65 1195.44 2344.65 1193.02 2344.1 1191.31 2343.03 1190.04 2341.96 1188.77 2340.61 1188.16 2338.98 1188.16 2337.35 1188.16 2336.04 1188.77 2334.93 1190.04 2333.82 1191.31 2333.31 1193.11 2333.31 1195.48M2327 1195.15C2327 1193.07 2327.52 1191.02 2328.51 1189.06 2329.5 1187.09 2330.93 1185.58 2332.79 1184.55 2334.66 1183.53 2336.68 1183 2338.98 1183 2342.47 1183 2345.37 1184.19 2347.63 1186.52 2349.89 1188.89 2351 1191.84 2351 1195.44 2351 1199.04 2349.85 1202.07 2347.59 1204.44 2345.33 1206.81 2342.47 1208 2339.02 1208 2336.88 1208 2334.85 1207.51 2332.91 1206.53 2330.97 1205.55 2329.5 1204.07 2328.51 1202.15 2327.52 1200.23 2327 1197.89 2327 1195.15" fill="#004F9D" fill-rule="evenodd"/><path d="M2362.23 1194.92C2362.23 1197.57 2362.76 1199.5 2363.8 1200.78 2364.85 1202.03 2366.13 1202.67 2367.62 1202.67 2369.11 1202.67 2370.27 1202.11 2371.24 1200.95 2372.2 1199.78 2372.69 1197.89 2372.69 1195.24 2372.69 1192.8 2372.2 1190.95 2371.2 1189.74 2370.19 1188.54 2368.99 1187.94 2367.5 1187.94 2366.01 1187.94 2364.73 1188.54 2363.72 1189.7 2362.72 1190.87 2362.19 1192.59 2362.19 1194.92M2356.04 1183.56 2361.83 1183.56 2361.83 1187.01C2362.59 1185.85 2363.6 1184.89 2364.89 1184.12 2366.17 1183.4 2367.62 1183 2369.19 1183 2371.92 1183 2374.26 1184.08 2376.15 1186.21 2378.03 1188.34 2379 1191.35 2379 1195.16 2379 1198.98 2378.03 1202.15 2376.1 1204.32 2374.17 1206.49 2371.84 1207.57 2369.11 1207.57 2367.82 1207.57 2366.62 1207.29 2365.57 1206.81 2364.52 1206.28 2363.4 1205.4 2362.23 1204.16L2362.23 1216 2356 1216 2356 1183.56Z" fill="#004F9D" fill-rule="evenodd"/><path d="M2397.87 1193.46C2397.83 1191.62 2397.35 1190.23 2396.46 1189.29 2395.58 1188.35 2394.49 1187.86 2393.2 1187.86 2391.83 1187.86 2390.7 1188.35 2389.81 1189.37 2388.93 1190.39 2388.49 1191.74 2388.49 1193.46L2397.83 1193.46ZM2397.51 1199.87 2403.71 1200.93C2402.91 1203.26 2401.66 1205.02 2399.93 1206.2 2398.19 1207.43 2396.06 1208 2393.44 1208 2389.33 1208 2386.31 1206.65 2384.34 1203.92 2382.81 1201.75 2382 1198.97 2382 1195.66 2382 1191.7 2383.01 1188.6 2385.06 1186.35 2387.12 1184.1 2389.69 1183 2392.8 1183 2396.3 1183 2399.08 1184.18 2401.09 1186.51 2403.11 1188.88 2404.08 1192.48 2404 1197.3L2388.36 1197.3C2388.41 1199.18 2388.93 1200.65 2389.9 1201.67 2390.86 1202.69 2392.07 1203.22 2393.48 1203.22 2394.45 1203.22 2395.29 1202.93 2395.94 1202.4 2396.62 1201.87 2397.11 1200.97 2397.47 1199.79" fill="#004F9D" fill-rule="evenodd"/><path d="M2421.59 1195.97C2420.79 1196.25 2419.54 1196.54 2417.82 1196.95 2416.1 1197.31 2414.97 1197.68 2414.45 1198.05 2413.65 1198.62 2413.25 1199.35 2413.25 1200.29 2413.25 1201.23 2413.57 1201.92 2414.21 1202.58 2414.85 1203.23 2415.7 1203.55 2416.7 1203.55 2417.82 1203.55 2418.9 1203.19 2419.9 1202.41 2420.67 1201.84 2421.15 1201.15 2421.39 1200.33 2421.55 1199.8 2421.63 1198.78 2421.63 1197.27L2421.63 1196.01ZM2413.29 1190.83 2407.64 1189.81C2408.28 1187.49 2409.36 1185.77 2410.93 1184.67 2412.49 1183.57 2414.77 1183 2417.82 1183 2420.58 1183 2422.67 1183.33 2423.99 1184.02 2425.35 1184.67 2426.32 1185.53 2426.84 1186.55 2427.4 1187.57 2427.68 1189.44 2427.68 1192.22L2427.6 1199.6C2427.6 1201.68 2427.68 1203.23 2427.88 1204.25 2428.08 1205.27 2428.44 1206.33 2429 1207.47L2422.87 1207.47C2422.71 1207.06 2422.51 1206.45 2422.27 1205.59 2422.19 1205.23 2422.11 1204.98 2422.07 1204.86 2421.03 1205.92 2419.86 1206.7 2418.66 1207.23 2417.46 1207.76 2416.18 1208 2414.81 1208 2412.41 1208 2410.49 1207.35 2409.08 1206 2407.68 1204.66 2407 1202.98 2407 1200.94 2407 1199.6 2407.32 1198.38 2407.96 1197.31 2408.6 1196.25 2409.48 1195.44 2410.61 1194.87 2411.73 1194.3 2413.37 1193.81 2415.54 1193.4 2418.46 1192.83 2420.46 1192.34 2421.59 1191.85L2421.59 1191.24C2421.59 1190.01 2421.31 1189.16 2420.71 1188.63 2420.1 1188.1 2418.98 1187.85 2417.38 1187.85 2416.26 1187.85 2415.42 1188.06 2414.77 1188.51 2414.17 1188.95 2413.65 1189.73 2413.29 1190.83" fill="#004F9D" fill-rule="evenodd"/><path d="M2455 1207 2448.9 1207 2448.9 1195.02C2448.9 1192.5 2448.79 1190.85 2448.51 1190.09 2448.24 1189.33 2447.84 1188.77 2447.25 1188.37 2446.66 1187.97 2445.96 1187.77 2445.13 1187.77 2444.07 1187.77 2443.12 1188.05 2442.3 1188.65 2441.47 1189.25 2440.88 1190.01 2440.57 1190.97 2440.25 1191.93 2440.1 1193.74 2440.1 1196.38L2440.1 1207 2434 1207 2434 1183.52 2439.66 1183.52 2439.66 1186.97C2441.67 1184.32 2444.19 1183 2447.25 1183 2448.59 1183 2449.81 1183.24 2450.95 1183.72 2452.05 1184.2 2452.92 1184.84 2453.47 1185.6 2454.06 1186.37 2454.45 1187.25 2454.65 1188.21 2454.88 1189.17 2455 1190.57 2455 1192.38L2455 1206.96Z" fill="#004F9D" fill-rule="evenodd"/><path d="M2474.04 1175 2480.36 1175 2480.36 1192.54C2480.36 1195.3 2480.43 1197.11 2480.59 1197.95 2480.86 1199.27 2481.52 1200.35 2482.53 1201.15 2483.54 1201.95 2484.93 1202.35 2486.71 1202.35 2488.5 1202.35 2489.85 1201.95 2490.78 1201.23 2491.71 1200.47 2492.26 1199.55 2492.41 1198.43 2492.57 1197.31 2492.68 1195.5 2492.68 1192.94L2492.68 1175.04 2499 1175.04 2499 1192.06C2499 1195.95 2498.85 1198.71 2498.5 1200.31 2498.15 1201.91 2497.53 1203.27 2496.6 1204.36 2495.67 1205.48 2494.47 1206.36 2492.92 1207 2491.36 1207.64 2489.39 1208 2486.91 1208 2483.92 1208 2481.64 1207.64 2480.09 1206.92 2478.53 1206.2 2477.33 1205.28 2476.4 1204.16 2475.51 1203.03 2474.93 1201.83 2474.62 1200.55 2474.19 1198.71 2474 1195.95 2474 1192.34L2474 1175.08Z" fill="#004F9D" fill-rule="evenodd"/><path d="M2527 1207 2520.9 1207 2520.9 1195.02C2520.9 1192.5 2520.79 1190.85 2520.51 1190.09 2520.24 1189.33 2519.84 1188.77 2519.25 1188.37 2518.66 1187.97 2517.96 1187.77 2517.13 1187.77 2516.07 1187.77 2515.12 1188.05 2514.3 1188.65 2513.47 1189.25 2512.88 1190.01 2512.57 1190.97 2512.25 1191.93 2512.1 1193.74 2512.1 1196.38L2512.1 1207 2506 1207 2506 1183.52 2511.66 1183.52 2511.66 1186.97C2513.67 1184.32 2516.19 1183 2519.25 1183 2520.59 1183 2521.81 1183.24 2522.95 1183.72 2524.05 1184.2 2524.92 1184.84 2525.47 1185.6 2526.06 1186.37 2526.45 1187.25 2526.65 1188.21 2526.88 1189.17 2527 1190.57 2527 1192.38L2527 1206.96Z" fill="#004F9D" fill-rule="evenodd"/><path d="M2534 1183.82 2540 1183.82 2540 1207 2534 1207 2534 1183.82ZM2534 1175 2540 1175 2540 1180.66 2534 1180.66 2534 1175Z" fill="#004F9D" fill-rule="evenodd"/><path d="M2551.31 1195.52C2551.31 1197.89 2551.86 1199.73 2552.93 1200.96 2554.04 1202.23 2555.39 1202.84 2556.98 1202.84 2558.57 1202.84 2559.92 1202.23 2561.03 1200.96 2562.1 1199.69 2562.65 1197.85 2562.65 1195.44 2562.65 1193.02 2562.1 1191.31 2561.03 1190.04 2559.96 1188.77 2558.61 1188.16 2556.98 1188.16 2555.35 1188.16 2554.04 1188.77 2552.93 1190.04 2551.86 1191.31 2551.31 1193.11 2551.31 1195.48M2545 1195.15C2545 1193.07 2545.52 1191.02 2546.51 1189.06 2547.5 1187.09 2548.93 1185.58 2550.79 1184.55 2552.66 1183.53 2554.68 1183 2556.98 1183 2560.51 1183 2563.37 1184.19 2565.63 1186.52 2567.89 1188.89 2569 1191.84 2569 1195.44 2569 1199.04 2567.85 1202.07 2565.59 1204.44 2563.33 1206.81 2560.47 1208 2557.02 1208 2554.88 1208 2552.85 1207.51 2550.91 1206.53 2548.97 1205.55 2547.5 1204.07 2546.51 1202.15 2545.52 1200.23 2545 1197.89 2545 1195.15" fill="#004F9D" fill-rule="evenodd"/><path d="M2595 1207 2588.9 1207 2588.9 1195.02C2588.9 1192.5 2588.79 1190.85 2588.51 1190.09 2588.24 1189.33 2587.84 1188.77 2587.25 1188.37 2586.66 1187.97 2585.96 1187.77 2585.13 1187.77 2584.07 1187.77 2583.12 1188.05 2582.3 1188.65 2581.47 1189.25 2580.88 1190.01 2580.57 1190.97 2580.25 1191.93 2580.1 1193.74 2580.1 1196.38L2580.1 1207 2574 1207 2574 1183.52 2579.66 1183.52 2579.66 1186.97C2581.67 1184.32 2584.19 1183 2587.25 1183 2588.59 1183 2589.81 1183.24 2590.95 1183.72 2592.05 1184.2 2592.92 1184.84 2593.47 1185.6 2594.06 1186.37 2594.45 1187.25 2594.65 1188.21 2594.88 1189.17 2595 1190.57 2595 1192.38L2595 1206.96Z" fill="#004F9D" fill-rule="evenodd"/><path d="M1777.73 1126.83C1783.3 1126.83 1787.03 1130.26 1788.44 1135.57 1793.35 1136 1798.21 1136.5 1803 1137 1801 1124.9 1792.87 1115 1777.73 1115 1765.64 1115 1756.41 1122.55 1753 1132.95 1757.87 1133.22 1762.65 1133.57 1767.44 1133.88 1769.33 1129.49 1772.86 1126.83 1777.73 1126.83" fill="#A3ACD8" fill-rule="evenodd"/><path d="M1751 1142.76C1751 1159.49 1763.01 1171 1779.22 1171 1788.99 1171 1796.23 1167.11 1801.28 1160.79L1792.51 1152.93C1788.27 1156.9 1784.55 1158.56 1779.42 1158.56 1772.58 1158.56 1767.73 1154.88 1766.21 1147.87L1803.8 1147.87C1803.88 1146.45 1804 1144.99 1804 1143.78 1804 1141.55 1803.8 1139.36 1803.48 1137.25 1798.6 1136.73 1793.63 1136.24 1788.63 1135.75 1788.83 1136.52 1788.99 1137.33 1789.11 1138.19L1766.05 1138.19C1766.29 1136.65 1766.73 1135.27 1767.25 1133.97 1762.41 1133.61 1757.49 1133.28 1752.52 1133 1751.56 1136 1751.04 1139.24 1751.04 1142.56L1751.04 1142.76Z" fill="#164194" fill-rule="evenodd"/><path d="M1491 1099 1475 1099 1475 1147C1480.2 1146.03 1485.52 1145.11 1491 1144.22L1491 1099Z" fill="#A3ACD8" fill-rule="evenodd"/><path d="M1585.11 1129.04 1598 1129.04 1598 1115.88 1585.11 1115.88 1585.11 1102 1569.54 1102 1569.54 1115.88 1563 1115.88 1563 1129.04 1569.54 1129.04 1569.54 1135C1574.67 1134.6 1579.87 1134.24 1585.11 1133.91L1585.11 1129.04Z" fill="#A3ACD8" fill-rule="evenodd"/><path d="M1632.92 1126.83C1636.69 1126.83 1639.61 1128.38 1641.61 1130.92 1646.7 1130.8 1651.83 1130.73 1657 1130.69 1653.43 1121.63 1645.62 1115 1632.92 1115 1620.94 1115 1611.73 1122.09 1608 1132 1613.25 1131.77 1618.5 1131.58 1623.79 1131.38 1625.87 1128.49 1628.95 1126.8 1632.88 1126.8" fill="#A3ACD8" fill-rule="evenodd"/><path d="M1697.68 1131C1699.1 1130.73 1700.56 1130.57 1702.19 1130.57L1703 1130.57 1703 1115.02C1693.83 1114.63 1688.67 1119.34 1685.55 1126.57L1685.55 1115.99 1670 1115.99 1670 1130.77 1670.85 1130.77C1679.86 1130.77 1688.83 1130.84 1697.68 1131" fill="#A3ACD8" fill-rule="evenodd"/><path d="M1744.19 1130.35 1745 1130.35 1745 1115.02C1735.83 1114.64 1730.71 1119.28 1727.55 1126.4L1727.55 1115.98 1712 1115.98 1712 1131.16C1720.08 1131.39 1728.07 1131.66 1735.99 1132 1738.3 1130.89 1741.06 1130.35 1744.19 1130.35" fill="#A3ACD8" fill-rule="evenodd"/><path d="M1826.04 1140.23 1826.04 1140.03C1826.04 1132.69 1831.62 1127.59 1838.98 1127.59 1846.34 1127.59 1852.04 1132.69 1852.04 1140.03L1852.04 1140.23C1852.04 1141.66 1851.84 1142.98 1851.45 1144.21 1856.75 1145.09 1861.93 1146 1867 1147L1867 1116 1851.84 1116 1851.84 1123.01C1847.77 1118.51 1842.9 1115 1834.63 1115 1822.75 1115 1811.67 1123.49 1811 1138.59 1816.11 1139.19 1821.13 1139.79 1826.08 1140.46L1826.08 1140.27Z" fill="#A3ACD8" fill-rule="evenodd"/><path d="M1525.5 1129.07C1526.49 1128.6 1528.72 1128.12 1529.84 1128.12 1530.95 1128.12 1533.18 1128.6 1534.18 1129.07 1538.04 1130.9 1539.79 1133.63 1540.31 1137.48 1545.13 1136.96 1550.02 1136.49 1555 1136.05 1553.29 1128.28 1548.63 1121.7 1541.38 1118.05 1538.08 1116.39 1534.22 1115 1529.88 1115 1525.54 1115 1521.68 1116.39 1518.33 1118.05 1509.33 1122.61 1504.28 1131.69 1504 1142 1508.98 1141.29 1514.07 1140.57 1519.21 1139.9 1519.21 1134.74 1520.84 1131.26 1525.5 1129.04" fill="#A3ACD8" fill-rule="evenodd"/><path d="M1491 1169 1491 1144C1485.56 1144.86 1480.2 1145.76 1475 1146.7L1475 1169 1491 1169Z" fill="#164194" fill-rule="evenodd"/><path d="M1585.27 1170C1590.24 1170 1593.89 1168.8 1597 1166.88L1597 1154.58C1594.86 1155.78 1592.42 1156.51 1589.66 1156.51 1586.32 1156.51 1584.88 1154.78 1584.88 1151.26L1584.88 1133C1579.87 1133.32 1574.93 1133.68 1570 1134.08L1570 1153.74C1570 1166.24 1576.18 1169.96 1585.27 1169.96" fill="#164194" fill-rule="evenodd"/><path d="M1606 1143.04C1606 1159.61 1618.01 1171 1634.22 1171 1643.99 1171 1651.23 1167.15 1656.28 1160.89L1647.51 1153.11C1643.27 1157.04 1639.55 1158.68 1634.42 1158.68 1627.58 1158.68 1622.73 1155.03 1621.21 1148.09L1658.8 1148.09C1658.88 1146.69 1659 1145.24 1659 1144.04 1659 1139.47 1658.24 1135.01 1656.76 1131 1651.59 1131.04 1646.47 1131.12 1641.39 1131.24 1642.79 1133.17 1643.75 1135.61 1644.11 1138.5L1621.05 1138.5C1621.49 1135.85 1622.37 1133.57 1623.65 1131.76 1618.33 1131.96 1613.09 1132.16 1607.84 1132.4 1606.68 1135.65 1606.04 1139.18 1606.04 1142.88L1606.04 1143.08Z" fill="#164194" fill-rule="evenodd"/><path d="M1685.7 1168.96 1685.7 1149.43C1685.7 1138.76 1690.29 1132.8 1698 1131.24 1689.02 1131.08 1680 1131 1670.86 1131L1670 1131 1670 1169 1685.7 1169Z" fill="#164194" fill-rule="evenodd"/><path d="M1727.55 1169 1727.55 1149.16C1727.55 1140.2 1730.64 1134.54 1736 1131.92 1728.08 1131.56 1720.08 1131.24 1712 1131L1712 1169 1727.55 1169Z" fill="#164194" fill-rule="evenodd"/><path d="M1811.04 1139.69C1811.04 1155.83 1822.29 1165.07 1834.7 1165.07 1842.75 1165.07 1847.61 1161.72 1852.11 1156.23L1852.11 1158.89C1852.11 1168.66 1847.25 1173.7 1836.91 1173.7 1829.84 1173.7 1824.39 1171.88 1818.9 1168.74L1813.72 1180.31C1820.48 1183.98 1828.65 1186 1837.3 1186 1847.65 1186 1855.31 1183.78 1860.25 1178.7 1864.71 1174.14 1867 1167.04 1867 1157.28L1867 1146.55C1861.95 1145.58 1856.77 1144.66 1851.48 1143.73 1849.82 1148.93 1845 1152.32 1839.04 1152.32 1831.73 1152.32 1826.2 1147.32 1826.13 1139.9 1821.19 1139.25 1816.17 1138.61 1811.08 1138 1811.08 1138.48 1811 1138.97 1811 1139.49L1811 1139.69Z" fill="#164194" fill-rule="evenodd"/><path d="M1541.16 1139.95 1541.16 1169 1556 1169 1556 1142.69C1556 1140.38 1555.77 1138.15 1555.3 1136 1550.5 1136.43 1545.73 1136.9 1541 1137.41 1541.12 1138.23 1541.16 1139.05 1541.16 1139.95" fill="#164194" fill-rule="evenodd"/><path d="M1504 1143.04 1504 1169 1519 1169 1519 1140C1513.95 1140.66 1508.93 1141.32 1504.04 1142.02L1504.04 1142.84C1504.04 1142.84 1504.04 1143.04 1504.04 1143.04Z" fill="#164194" fill-rule="evenodd"/><path d="M1850.75 1222.65 1850.75 1215.5 1864.61 1215.5 1864.61 1209.94 1850.75 1209.94 1850.75 1203.23 1866.44 1203.23 1866.44 1197.52 1843.85 1197.52 1843.85 1228.36 1867 1228.36 1867 1222.65 1850.75 1222.65ZM1827 1214.07 1821.35 1214.07 1821.35 1203.35 1827 1203.35C1831.23 1203.35 1833.38 1205.34 1833.38 1208.75 1833.38 1212.17 1831.23 1214.07 1827 1214.07M1827.4 1197.56 1814.45 1197.56 1814.45 1228.4 1821.39 1228.4 1821.39 1219.91 1827.4 1219.91C1835.37 1219.91 1840.39 1215.66 1840.39 1208.75 1840.39 1201.84 1835.41 1197.56 1827.4 1197.56M1794.14 1222.85C1788.8 1222.85 1784.78 1218.84 1784.78 1212.96 1784.78 1207.08 1788.8 1203.07 1794.14 1203.07 1799.48 1203.07 1803.5 1207.08 1803.5 1212.96 1803.5 1218.84 1799.48 1222.85 1794.14 1222.85M1794.14 1228.92C1803.54 1228.92 1810.47 1222.17 1810.47 1212.96 1810.47 1203.75 1803.5 1197 1794.14 1197 1784.78 1197 1777.76 1203.79 1777.76 1212.96 1777.76 1222.13 1784.7 1228.92 1794.14 1228.92M1768.64 1208.75C1768.64 1212.09 1766.49 1214.15 1762.27 1214.15L1756.61 1214.15 1756.61 1203.39 1762.27 1203.39C1766.49 1203.39 1768.64 1205.38 1768.64 1208.79M1776.21 1228.44 1769.52 1218.52C1773.38 1216.81 1775.65 1213.4 1775.65 1208.79 1775.65 1201.88 1770.67 1197.6 1762.67 1197.6L1749.72 1197.6 1749.72 1228.44 1756.65 1228.44 1756.65 1219.87 1763.02 1219.87 1768.8 1228.44 1776.21 1228.44ZM1730.64 1228.96C1739.12 1228.96 1744.18 1223.96 1744.18 1214.87L1744.18 1197.6 1737.37 1197.6 1737.37 1214.63C1737.37 1220.5 1734.94 1222.93 1730.72 1222.93 1726.49 1222.93 1724.06 1220.5 1724.06 1214.63L1724.06 1197.6 1717.13 1197.6 1717.13 1214.87C1717.13 1223.96 1722.15 1228.96 1730.68 1228.96M1697.09 1222.73 1697.09 1215.58 1710.96 1215.58 1710.96 1210.02 1697.09 1210.02 1697.09 1203.31 1712.79 1203.31 1712.79 1197.6 1690.2 1197.6 1690.2 1228.44 1713.35 1228.44 1713.35 1222.73 1697.09 1222.73ZM1654.91 1228.44 1676.82 1228.44 1676.82 1222.65 1661.84 1222.65 1661.84 1197.6 1654.91 1197.6 1654.91 1228.44ZM1631.4 1216.41 1636.14 1204.62 1640.88 1216.41 1631.4 1216.41ZM1645.7 1228.44 1652.95 1228.44 1639.61 1197.6 1632.76 1197.6 1619.45 1228.44 1626.54 1228.44 1629.17 1221.85 1643.03 1221.85 1645.7 1228.44ZM1611.04 1208.79C1611.04 1212.13 1608.89 1214.19 1604.67 1214.19L1599.01 1214.19 1599.01 1203.43 1604.67 1203.43C1608.89 1203.43 1611.04 1205.42 1611.04 1208.83M1618.61 1228.48 1611.92 1218.56C1615.79 1216.85 1618.06 1213.44 1618.06 1208.83 1618.06 1201.92 1613.08 1197.64 1605.07 1197.64L1592.12 1197.64 1592.12 1228.48 1599.05 1228.48 1599.05 1219.91 1605.43 1219.91 1611.2 1228.48 1618.61 1228.48ZM1573.44 1228.48 1580.37 1228.48 1580.37 1203.43 1589.93 1203.43 1589.93 1197.64 1563.88 1197.64 1563.88 1203.43 1573.44 1203.43 1573.44 1228.48ZM1554.79 1197.64 1554.79 1216.37 1539.93 1197.64 1534.2 1197.64 1534.2 1228.48 1541.01 1228.48 1541.01 1209.74 1555.91 1228.48 1561.57 1228.48 1561.57 1197.64 1554.75 1197.64ZM1513.44 1222.77 1513.44 1215.62 1527.31 1215.62 1527.31 1210.06 1513.44 1210.06 1513.44 1203.35 1529.14 1203.35 1529.14 1197.64 1506.55 1197.64 1506.55 1228.48 1529.7 1228.48 1529.7 1222.77 1513.44 1222.77ZM1491.17 1229C1496.39 1229 1500.69 1227.05 1503.52 1223.48L1499.1 1219.23C1497.11 1221.66 1494.56 1222.89 1491.57 1222.89 1485.99 1222.89 1482.01 1218.84 1482.01 1213 1482.01 1207.16 1485.99 1203.11 1491.57 1203.11 1494.56 1203.11 1497.07 1204.34 1499.1 1206.73L1503.52 1202.52C1500.69 1198.98 1496.39 1197.04 1491.21 1197.04 1481.89 1197.04 1475 1203.67 1475 1213 1475 1222.33 1481.89 1228.96 1491.17 1228.96" fill="#164194" fill-rule="evenodd"/><path d="M1413.5 1294.5 2653.5 1294.5" stroke="#164194" stroke-width="2.70958" stroke-linecap="round" stroke-miterlimit="8" fill="none" fill-rule="evenodd"/></g></svg>