<svg width="1026" height="839" xmlns="http://www.w3.org/2000/svg" xmlns:xlink="http://www.w3.org/1999/xlink" xml:space="preserve" overflow="hidden"><defs><filter id="fx0" x="-10%" y="-10%" width="120%" height="120%" filterUnits="userSpaceOnUse" primitiveUnits="userSpaceOnUse"><feComponentTransfer color-interpolation-filters="sRGB"><feFuncR type="discrete" tableValues="0 0"/><feFuncG type="discrete" tableValues="0 0"/><feFuncB type="discrete" tableValues="0 0"/><feFuncA type="linear" slope="0.188235" intercept="0"/></feComponentTransfer><feGaussianBlur stdDeviation="6.11111 6.11111"/></filter><clipPath id="clip1"><rect x="0" y="0" width="335" height="277"/></clipPath></defs><g transform="translate(-1796 -959)"><g filter="url(#fx0)" transform="matrix(3 0 0 3 1817 968)"><g clip-path="url(#clip1)" transform="matrix(1 0 0 1 0 -5.68434e-14)"><path d="M313.3 91.705C310.387 90.3313 306.969 91.5226 305.594 94.4361 305.461 94.5726 305.462 94.7072 305.398 94.91L255.708 88.9275C255.697 88.1198 255.687 87.3122 255.474 86.44 254.911 84.5628 253.678 82.9641 251.915 81.9112L258.656 67.0761C260.279 67.5924 262.294 67.2955 263.828 66.13 266.361 64.2104 266.786 60.6367 264.868 58.1049 262.951 55.5732 259.309 55.0846 256.776 57.0043 254.311 58.9903 253.818 62.4976 255.735 65.0294 256.214 65.6287 256.76 66.1597 257.37 66.4879L250.763 81.3212C249.275 80.803 247.658 80.6906 246.114 81.0484 244.034 81.5481 242.368 82.85 241.315 84.7494 240.196 86.7169 240.023 88.9408 240.722 90.9507L172.399 106.833C170.559 99.8571 165.968 93.6595 158.988 90.0529 148.417 84.6779 135.861 87.2063 128.024 95.392L93.0849 64.0303C93.7475 63.2133 94.3419 62.3301 94.8682 61.3804 95.5885 59.8222 96.0397 58.2677 96.288 56.6487L151.801 60.0605C151.827 62.0797 152.659 63.9532 154.226 65.3454 157.22 67.8623 161.659 67.5321 164.178 64.5356 166.631 61.6073 166.304 57.1688 163.31 54.6518 163.105 54.4527 162.834 54.3218 162.562 54.0562L171.428 36.9032C173.186 37.5522 175.27 37.3217 176.87 36.088 179.403 34.1684 179.828 30.5947 177.91 28.063 175.993 25.5312 172.351 25.0426 169.818 26.9623 167.353 28.9483 166.86 32.4556 168.778 34.9874 169.188 35.5203 169.666 35.9849 170.207 36.2468L161.41 53.4662C158.635 52.3599 155.413 53.0773 153.424 55.3934 152.562 56.4149 152.106 57.5656 151.918 58.7126L96.4052 55.3007C96.472 50.049 93.6455 44.9044 88.6983 42.3469 85.6495 40.8404 82.1427 40.35 78.8561 41.2702 75.0974 42.1296 71.8981 44.597 69.9889 47.9217L29.658 26.4623C29.7891 26.1913 29.8538 25.9884 29.9167 25.651 30.6179 22.6121 28.6934 19.5419 25.6551 18.8431 22.5486 18.0779 19.477 20.0049 18.7775 23.1785 18.0763 26.2174 20.0008 29.2876 23.0391 29.9864 25.4026 30.5598 27.7453 29.5179 29.0006 27.6831L69.398 49.0742C67.959 52.3252 67.6686 55.897 68.789 59.2475 69.9129 62.8673 72.5087 65.7936 75.762 67.4992 77.1168 68.1538 78.5363 68.6056 79.8858 68.8563L74.2225 115.047C71.5967 115.015 69.1964 116.799 68.5581 119.5 67.8569 122.539 69.8497 125.675 72.888 126.374 75.9262 127.073 79.0643 125.078 79.7655 122.039 80.4667 119 78.5422 115.93 75.5703 115.163L81.3019 69.0388C82.7161 69.0867 84.2633 68.9982 85.6723 68.6423 88.1548 68.0023 90.2929 66.7613 92.0884 65.0537L127.096 96.4818C125.769 97.981 124.646 99.6794 123.66 101.51 117.095 114.391 122.213 130.14 135.089 136.83 138.138 138.336 141.381 139.234 144.549 139.528L139.303 218.025C138.696 217.966 137.957 218.043 137.354 218.253L120.803 172.099C121.605 171.684 122.271 171.136 122.936 170.454 125.455 167.457 125.128 163.019 122.134 160.502 119.139 157.985 114.701 158.315 112.181 161.311L111.984 161.651 102.002 154.989C102.922 153.226 102.892 150.937 101.658 149.204 99.8734 146.536 96.2966 145.844 93.6271 147.631 91.0257 149.485 90.3314 153.062 92.1826 155.662 93.8991 158.264 97.4759 158.955 100.145 157.168 100.546 156.893 100.944 156.484 101.277 156.143L111.258 162.805C109.881 165.584 110.464 169.076 113.05 171.195 114.889 172.853 117.317 173.223 119.53 172.587L136.079 218.607C135.745 218.814 135.478 218.952 135.21 219.09 131.535 221.228 130.318 226.024 132.519 229.629 134.239 232.5 137.692 234.001 140.98 233.215 141.517 233.073 141.985 232.865 142.454 232.657L151.671 247.878C150.071 249.112 149.155 251.144 149.452 253.294 149.896 256.385 152.819 258.566 155.91 258.12 159.069 257.74 161.252 254.815 160.875 251.657 160.431 248.566 157.508 246.385 154.349 246.765 153.879 246.838 153.342 246.98 152.874 247.189L143.657 231.967C145.123 230.87 146.181 229.374 146.629 227.55 147.075 225.592 146.846 223.508 145.746 221.773 144.645 219.903 142.743 218.583 140.719 218.207L145.963 139.575C155.864 140.045 165.557 134.729 170.417 125.372 173.173 119.815 173.836 113.814 172.686 108.175L241.278 92.2895C241.967 93.4917 242.923 94.5557 244.211 95.2785 245.907 96.265 247.93 96.5065 249.875 96.0086 251.956 95.5088 253.622 94.2069 254.743 92.374 255.138 91.6953 255.33 90.9522 255.522 90.2091L305.079 96.3281C304.84 98.6201 306.014 100.96 308.25 102.074 311.163 103.448 314.58 102.256 315.956 99.3427 317.266 96.4974 316.077 93.0805 313.3 91.705M76.4194 66.2785C70.1856 63.1328 67.6616 55.3586 70.8804 49.1885 72.5204 45.8675 75.5851 43.4019 79.2091 42.5444 82.1618 41.8307 85.3295 42.1238 88.0409 43.5676 94.3429 46.7797 96.7986 54.4875 93.648 60.724 91.9398 63.9787 88.8751 66.4442 85.3193 67.3681 82.3666 68.0818 79.1972 67.6541 76.4194 66.2785ZM144.544 222.463C145.505 223.931 145.729 225.611 145.279 227.3 144.896 228.921 143.837 230.281 142.435 231.176 141.833 231.521 141.23 231.731 140.693 231.873 138.01 232.583 135.099 231.344 133.722 228.939 131.866 225.935 132.892 222.017 135.899 220.293 136.432 219.882 137.035 219.671 137.572 219.529 140.324 218.886 143.166 220.058 144.544 222.463ZM253.522 91.7175C252.666 93.1429 251.267 94.3065 249.522 94.7344 247.979 95.0922 246.293 94.9133 244.869 94.0578 241.817 92.2821 240.757 88.4595 242.535 85.4058 243.39 83.8458 244.791 82.8168 246.467 82.3226 247.675 82.0367 249.023 82.1528 250.173 82.6083L250.173 82.6083 251.189 83.0656C252.614 83.9211 253.708 85.2525 254.133 86.8623 254.557 88.4721 254.377 90.1575 253.522 91.7175" fill="#18BAA8" fill-rule="evenodd"/></g></g><path d="M2757.45 1197.19C2747.95 1192.71 2736.81 1196.6 2732.32 1206.1 2731.89 1206.54 2731.89 1206.98 2731.68 1207.64L2569.65 1188.13C2569.62 1185.5 2569.58 1182.87 2568.89 1180.02 2567.05 1173.9 2563.03 1168.69 2557.28 1165.26L2579.27 1116.88C2584.56 1118.56 2591.13 1117.59 2596.13 1113.79 2604.39 1107.53 2605.78 1095.88 2599.52 1087.63 2593.27 1079.37 2581.4 1077.78 2573.14 1084.04 2565.1 1090.51 2563.49 1101.95 2569.74 1110.21 2571.3 1112.16 2573.08 1113.89 2575.07 1114.96L2553.53 1163.33C2548.67 1161.64 2543.4 1161.27 2538.37 1162.44 2531.58 1164.07 2526.15 1168.32 2522.72 1174.51 2519.07 1180.93 2518.51 1188.18 2520.79 1194.73L2297.99 1246.52C2291.99 1223.77 2277.02 1203.56 2254.26 1191.8 2219.79 1174.28 2178.85 1182.52 2153.29 1209.21L2039.36 1106.95C2041.52 1104.28 2043.46 1101.4 2045.17 1098.31 2047.52 1093.23 2048.99 1088.16 2049.8 1082.88L2230.83 1094C2230.91 1100.59 2233.62 1106.7 2238.73 1111.24 2248.5 1119.44 2262.97 1118.37 2271.18 1108.6 2279.18 1099.05 2278.12 1084.57 2268.35 1076.37 2267.69 1075.72 2266.8 1075.29 2265.91 1074.42L2294.82 1018.49C2300.56 1020.61 2307.35 1019.85 2312.57 1015.83 2320.83 1009.57 2322.22 997.919 2315.96 989.663 2309.71 981.407 2297.84 979.814 2289.58 986.074 2281.54 992.55 2279.93 1003.99 2286.18 1012.24 2287.52 1013.98 2289.08 1015.5 2290.85 1016.35L2262.16 1072.5C2253.11 1068.89 2242.6 1071.23 2236.12 1078.78 2233.31 1082.11 2231.82 1085.87 2231.21 1089.61L2050.19 1078.48C2050.4 1061.36 2041.19 1044.58 2025.06 1036.24 2015.11 1031.33 2003.68 1029.73 1992.96 1032.73 1980.7 1035.53 1970.27 1043.58 1964.05 1054.42L1832.53 984.443C1832.96 983.56 1833.17 982.898 1833.38 981.798 1835.66 971.888 1829.39 961.877 1819.48 959.598 1809.35 957.103 1799.33 963.387 1797.05 973.735 1794.77 983.645 1801.04 993.656 1810.95 995.935 1818.66 997.805 1826.3 994.407 1830.39 988.424L1962.12 1058.18C1957.43 1068.78 1956.48 1080.43 1960.13 1091.35 1963.8 1103.16 1972.26 1112.7 1982.87 1118.26 1987.29 1120.39 1991.92 1121.87 1996.32 1122.68L1977.85 1273.31C1969.29 1273.2 1961.46 1279.02 1959.38 1287.83 1957.09 1297.74 1963.59 1307.96 1973.5 1310.24 1983.41 1312.52 1993.64 1306.02 1995.93 1296.11 1998.21 1286.2 1991.94 1276.19 1982.25 1273.68L2000.94 1123.28C2005.55 1123.44 2010.59 1123.15 2015.19 1121.99 2023.28 1119.9 2030.26 1115.85 2036.11 1110.28L2150.26 1212.77C2145.94 1217.66 2142.28 1223.19 2139.06 1229.17 2117.65 1271.17 2134.34 1322.52 2176.33 1344.34 2186.27 1349.25 2196.85 1352.18 2207.18 1353.13L2190.07 1609.1C2188.09 1608.91 2185.68 1609.16 2183.71 1609.85L2129.74 1459.34C2132.36 1457.99 2134.53 1456.21 2136.7 1453.98 2144.91 1444.21 2143.85 1429.74 2134.08 1421.53 2124.32 1413.32 2109.85 1414.4 2101.63 1424.17L2100.99 1425.28 2068.44 1403.55C2071.44 1397.8 2071.34 1390.34 2067.32 1384.69 2061.5 1375.99 2049.83 1373.73 2041.13 1379.56 2032.64 1385.6 2030.38 1397.27 2036.42 1405.75 2042.01 1414.23 2053.68 1416.49 2062.38 1410.66 2063.69 1409.76 2064.99 1408.43 2066.07 1407.32L2098.62 1429.04C2094.13 1438.1 2096.03 1449.49 2104.46 1456.4 2110.46 1461.8 2118.38 1463.01 2125.59 1460.94L2179.56 1611C2178.47 1611.68 2177.6 1612.13 2176.72 1612.58 2164.74 1619.55 2160.77 1635.19 2167.95 1646.94 2173.56 1656.31 2184.82 1661.2 2195.54 1658.64 2197.29 1658.17 2198.82 1657.5 2200.35 1656.82L2230.4 1706.45C2225.19 1710.48 2222.2 1717.1 2223.17 1724.11 2224.61 1734.19 2234.14 1741.3 2244.22 1739.85 2254.52 1738.61 2261.64 1729.07 2260.41 1718.77 2258.97 1708.69 2249.44 1701.58 2239.13 1702.82 2237.6 1703.06 2235.85 1703.52 2234.32 1704.2L2204.27 1654.57C2209.05 1650.99 2212.5 1646.11 2213.96 1640.17 2215.41 1633.78 2214.67 1626.98 2211.08 1621.33 2207.49 1615.23 2201.29 1610.92 2194.69 1609.7L2211.79 1353.29C2244.08 1354.82 2275.68 1337.49 2291.53 1306.98 2300.52 1288.85 2302.68 1269.29 2298.93 1250.9L2522.6 1199.1C2524.84 1203.02 2527.96 1206.49 2532.16 1208.84 2537.69 1212.06 2544.29 1212.85 2550.63 1211.22 2557.42 1209.59 2562.85 1205.35 2566.5 1199.37 2567.79 1197.16 2568.42 1194.74 2569.05 1192.31L2730.65 1212.27C2729.86 1219.74 2733.69 1227.37 2740.99 1231 2750.48 1235.48 2761.63 1231.6 2766.11 1222.1 2770.38 1212.82 2766.51 1201.68 2757.45 1197.19M1985.02 1114.28C1964.69 1104.02 1956.46 1078.67 1966.95 1058.55 1972.3 1047.72 1982.29 1039.68 1994.11 1036.89 2003.74 1034.56 2014.07 1035.51 2022.91 1040.22 2043.46 1050.7 2051.47 1075.83 2041.2 1096.17 2035.63 1106.78 2025.63 1114.82 2014.04 1117.83 2004.41 1120.16 1994.07 1118.76 1985.02 1114.28ZM2207.16 1623.58C2210.29 1628.36 2211.02 1633.84 2209.56 1639.35 2208.31 1644.63 2204.85 1649.07 2200.28 1651.99 2198.32 1653.11 2196.35 1653.8 2194.6 1654.26 2185.85 1656.58 2176.36 1652.54 2171.87 1644.69 2165.82 1634.9 2169.17 1622.12 2178.97 1616.5 2180.71 1615.16 2182.68 1614.47 2184.43 1614.01 2193.4 1611.91 2202.67 1615.73 2207.16 1623.58ZM2562.53 1197.23C2559.73 1201.88 2555.17 1205.67 2549.48 1207.07 2544.45 1208.24 2538.95 1207.65 2534.31 1204.86 2524.35 1199.07 2520.9 1186.61 2526.7 1176.65 2529.49 1171.56 2534.05 1168.21 2539.52 1166.6 2543.46 1165.66 2547.85 1166.04 2551.6 1167.53L2551.6 1167.53 2554.92 1169.02C2559.56 1171.81 2563.13 1176.15 2564.52 1181.4 2565.9 1186.65 2565.31 1192.15 2562.53 1197.23" fill="#18BAA8" fill-rule="evenodd"/></g></svg>