<svg width="526" height="346" xmlns="http://www.w3.org/2000/svg" xmlns:xlink="http://www.w3.org/1999/xlink" xml:space="preserve" overflow="hidden"><defs><filter id="fx0" x="-10%" y="-10%" width="120%" height="120%" filterUnits="userSpaceOnUse" primitiveUnits="userSpaceOnUse"><feComponentTransfer color-interpolation-filters="sRGB"><feFuncR type="discrete" tableValues="0 0"/><feFuncG type="discrete" tableValues="0 0"/><feFuncB type="discrete" tableValues="0 0"/><feFuncA type="linear" slope="0.188235" intercept="0"/></feComponentTransfer><feGaussianBlur stdDeviation="6.09949 6.12872"/></filter><clipPath id="clip1"><rect x="3196" y="694" width="526" height="346"/></clipPath><clipPath id="clip2"><rect x="0" y="0" width="175" height="116"/></clipPath></defs><g clip-path="url(#clip1)" transform="translate(-3196 -694)"><g filter="url(#fx0)" transform="matrix(3.00571 0 0 2.99138 3196 694)"><g clip-path="url(#clip2)" transform="matrix(1 0 0 1 0 -2.84217e-14)"><path d="M149.313 18.7328C146.496 18.1566 143.772 19.9723 143.199 22.8026 142.796 24.5875 143.369 26.3594 144.607 27.5703L120.355 59.0652C118.816 58.1652 116.917 57.7609 115.092 58.2761 114.301 58.4707 113.451 58.8501 112.785 59.2885 110.789 60.7264 109.779 62.8876 109.749 65.1584L65.763 68.6272C64.3279 61.7736 59.9702 55.5724 53.3281 52.1016 41.6448 46.1206 27.2937 50.7295 21.3434 62.4677 15.3328 74.2679 19.9828 88.6265 31.6661 94.6075 43.3511 100.711 57.7006 95.9796 63.6509 84.2415 66.0327 79.669 66.6982 74.6283 65.9634 69.9131L109.887 66.3838C110.083 67.3017 110.462 68.2785 111.084 69.1293 112.765 71.5001 115.65 72.6276 118.511 71.9146 119.302 71.72 120.152 71.3405 120.818 70.9022 121.242 70.5897 121.543 70.2789 121.904 69.9059L146.465 84.368C146.347 84.7377 146.23 85.1075 146.173 85.415 145.6 88.2454 147.348 91.0448 150.165 91.621 152.982 92.1972 155.706 90.3815 156.34 87.6117 156.973 84.7192 155.104 81.9213 152.287 81.3452 150.266 80.9425 148.262 81.7668 147.122 83.3161L122.624 68.9145C123.163 68.1096 123.518 67.2458 123.688 66.3231 124.03 64.4777 123.577 62.5814 122.519 61.0614 122.146 60.5755 121.835 60.1501 121.342 59.7884L145.593 28.2935C146.087 28.6551 146.639 28.8319 147.191 29.0086 150.008 29.5848 152.792 27.7069 153.365 24.8766 154 22.1068 152.13 19.3089 149.313 18.7328M122.464 66.0939C122.291 66.894 122.057 67.6334 121.577 68.2534L121.577 68.2534 121.518 68.4383C121.158 68.934 120.676 69.4313 120.071 69.8075 119.527 70.2443 118.859 70.56 118.19 70.753 115.876 71.2747 113.421 70.3255 112.051 68.3801 110.245 65.7654 110.869 62.1367 113.471 60.3226 114.076 59.9464 114.744 59.6307 115.413 59.4377 117.727 58.916 120.12 59.8047 121.49 61.7501 122.423 63.0263 122.749 64.5561 122.464 66.0939Z" fill="#18BAA8" fill-rule="evenodd"/></g></g><path d="M3623.46 706.099C3614.26 704.226 3605.36 710.13 3603.48 719.333 3602.17 725.136 3604.04 730.898 3608.08 734.835L3528.85 837.24C3523.82 834.314 3517.62 833 3511.66 834.675 3509.07 835.307 3506.29 836.541 3504.12 837.967 3497.6 842.642 3494.3 849.669 3494.2 857.052L3350.49 868.331C3345.81 846.047 3331.57 825.884 3309.87 814.598 3271.7 795.151 3224.81 810.137 3205.37 848.304 3185.73 886.672 3200.93 933.359 3239.1 952.806 3277.27 972.653 3324.15 957.268 3343.59 919.101 3351.37 904.234 3353.55 887.844 3351.15 872.512L3494.65 861.037C3495.29 864.021 3496.53 867.197 3498.56 869.964 3504.05 877.673 3513.48 881.339 3522.83 879.02 3525.41 878.388 3528.19 877.154 3530.36 875.728 3531.75 874.712 3532.73 873.702 3533.91 872.489L3614.15 919.512C3613.77 920.715 3613.39 921.917 3613.2 922.917 3611.33 932.12 3617.04 941.222 3626.24 943.096 3635.44 944.969 3644.34 939.065 3646.42 930.059 3648.49 920.654 3642.38 911.557 3633.17 909.684 3626.57 908.374 3620.02 911.055 3616.3 916.092L3536.26 869.266C3538.02 866.648 3539.18 863.84 3539.74 860.84 3540.86 854.839 3539.38 848.673 3535.92 843.731 3534.7 842.151 3533.69 840.768 3532.07 839.592L3611.31 737.186C3612.92 738.362 3614.72 738.937 3616.53 739.512 3625.73 741.385 3634.82 735.279 3636.7 726.076 3638.77 717.07 3632.66 707.973 3623.46 706.099M3535.74 860.094C3535.18 862.696 3534.41 865.1 3532.84 867.116L3532.84 867.116 3532.65 867.717C3531.47 869.329 3529.9 870.946 3527.92 872.169 3526.15 873.589 3523.96 874.616 3521.78 875.243 3514.22 876.939 3506.2 873.853 3501.72 867.528 3495.82 859.026 3497.86 847.227 3506.36 841.329 3508.34 840.106 3510.52 839.079 3512.7 838.452 3520.26 836.755 3528.08 839.645 3532.56 845.97 3535.61 850.12 3536.67 855.094 3535.74 860.094Z" fill="#18BAA8" fill-rule="evenodd"/></g></svg>