<svg width="716" height="1069" xmlns="http://www.w3.org/2000/svg" xmlns:xlink="http://www.w3.org/1999/xlink" xml:space="preserve" overflow="hidden"><defs><filter id="fx0" x="-10%" y="-10%" width="120%" height="120%" filterUnits="userSpaceOnUse" primitiveUnits="userSpaceOnUse"><feComponentTransfer color-interpolation-filters="sRGB"><feFuncR type="discrete" tableValues="0 0"/><feFuncG type="discrete" tableValues="0 0"/><feFuncB type="discrete" tableValues="0 0"/><feFuncA type="linear" slope="0.188235" intercept="0"/></feComponentTransfer><feGaussianBlur stdDeviation="6.10249 6.1053"/></filter></defs><g transform="translate(-2754 -589)"><g filter="url(#fx0)" transform="matrix(3.00424 0 0 3.00286 2762 608)"><g transform="translate(-1.13687e-13 0)"><path d="M215.576 264.754C213.26 262.499 209.699 262.614 207.444 264.931 207.112 265.271 206.782 265.747 206.519 266.154L175.772 254.257C176.419 252.365 176.392 250.347 175.494 248.543 174.663 246.671 173.164 245.212 171.205 244.498 169.786 243.912 168.171 243.799 166.629 244.156 166.228 244.296 165.892 244.367 165.559 244.574 163.421 240.499 153.135 220.257 142.649 200.085 137.541 190.064 133.539 182.316 130.365 176.17 132.235 175.204 133.964 173.835 135.49 172.268 144.309 163.07 144.049 148.478 134.922 139.587 129.543 134.48 122.39 132.423 115.612 133.389L104.546 69.5051 104.881 69.4333C106.357 69.1445 107.69 68.3195 108.752 67.2292 109.546 66.2769 110.137 65.2601 110.458 64.1124L135.932 68.7485C135.877 69.6236 135.955 70.497 136.371 71.4331 137.687 74.3076 141.065 75.6076 143.939 74.2912 146.812 72.9747 148.112 69.5943 146.863 66.6516 145.547 63.777 142.169 62.4771 139.295 63.7935 137.691 64.4876 136.633 65.8469 136.183 67.4L110.709 62.7638C110.948 60.4737 110.109 58.0636 108.338 56.3386 107.725 55.7414 107.048 55.3469 106.304 55.0206L114.778 29.9536C116.734 30.3982 119.01 29.6952 120.4 27.995 122.384 25.5471 121.933 21.9211 119.486 19.9361 117.04 17.951 113.482 18.335 111.497 20.7829 109.446 23.299 109.83 26.8586 112.276 28.8437 112.683 29.1073 113.09 29.3709 113.429 29.5681L105.021 54.567C103.805 54.1797 102.461 54.1977 101.12 54.4847 99.713 54.8398 98.4457 55.5966 97.3845 56.687 95.9934 58.2526 95.2799 60.2127 95.3067 62.2302 95.4015 64.314 96.3012 66.2525 97.7978 67.5776 99.4324 69.17 101.66 69.88 103.808 69.5822L103.272 69.7239 114.271 133.676C109.846 134.542 105.639 136.683 102.256 140.159 96.0897 146.631 94.3935 155.6 96.9185 163.502L65.937 174.477C64.7505 171.197 62.4277 168.403 59.11 166.632 56.0647 165.126 52.496 164.703 49.2802 165.553 48.4754 165.698 47.7405 166.044 46.9374 166.324L27.1979 127.712C28.5315 126.887 29.4565 125.664 29.8384 124.044 30.5377 121.008 28.6146 117.94 25.5119 117.175 22.4109 116.544 19.3439 118.468 18.6447 121.504 17.9472 124.675 19.8703 127.743 22.9712 128.374 24.0503 128.628 25.0576 128.548 25.9951 128.266L45.8028 166.945C43.3327 168.256 41.3429 170.3 40.0988 172.805 36.56 179.713 39.2947 188.219 46.199 191.758 49.3124 193.331 52.7468 193.756 56.0969 192.904 59.983 191.91 63.3763 189.241 65.2784 185.651 66.8506 182.536 67.1394 178.967 66.3581 175.817L97.406 164.774C98.6551 167.717 100.44 170.518 102.824 172.84 110.11 179.805 120.682 181.075 129.164 176.859 139.444 196.698 154.49 226.091 164.29 245.196 162.956 246.021 161.899 247.38 161.314 248.935 160.532 250.829 160.561 252.981 161.393 254.853 162.292 256.791 163.857 258.183 165.682 258.898 166.424 259.09 167.166 259.282 167.84 259.407 168.073 277.026 169.279 307.143 169.85 319.78 167.703 320.078 165.772 321.516 165.131 323.812 164.162 326.851 165.885 329.99 168.923 330.958 172.027 331.858 175.164 330.134 176.133 327.095 176.966 324.057 175.31 320.85 172.206 319.95 171.935 319.82 171.532 319.825 171.195 319.762 170.624 307.125 169.418 277.009 169.184 259.389 169.587 259.384 169.989 259.244 170.324 259.172 172.402 258.674 174.131 257.305 175.184 255.543L206.065 267.438C205.62 269.394 206.052 271.541 207.685 272.999 209.933 275.188 213.562 275.139 215.683 272.824 217.938 270.507 217.824 266.944 215.576 264.754M98.7264 66.6236C97.5004 65.4293 96.7405 63.8925 96.651 62.2122 96.6959 60.5301 97.2123 58.9089 98.4061 57.6822 99.2002 56.73 100.335 56.1094 101.541 55.8242 103.619 55.3256 105.777 55.8348 107.343 57.3608 109.93 59.7475 110.05 63.7143 107.664 66.3021 106.801 67.188 105.801 67.8068 104.595 68.092 102.451 68.6587 100.359 68.0814 98.7264 66.6236M63.9932 185.063C62.2884 188.314 59.2948 190.708 55.7439 191.63 52.7953 192.342 49.5635 191.982 46.8552 190.539 40.6284 187.394 38.1051 179.625 41.3176 173.462 42.5617 170.956 44.5533 169.046 46.9571 167.803L47.0915 167.802C47.8927 167.387 48.6958 167.108 49.5669 166.894 52.5819 166.114 55.6792 166.476 58.4539 167.851 64.7488 171.063 67.2039 178.765 63.9932 185.063ZM170.037 257.831C168.765 258.184 167.419 258.068 166.27 257.612 164.648 256.962 163.355 255.835 162.73 254.297 161.97 252.76 161.947 251.012 162.531 249.457 163.245 247.497 164.906 246.062 166.916 245.497 168.257 245.21 169.535 245.26 170.752 245.782 172.306 246.366 173.532 247.561 174.291 249.098 174.917 250.636 175.006 252.316 174.356 253.939 173.642 255.9 171.98 257.334 170.037 257.831" fill="#18BAA8" fill-rule="evenodd"/></g></g><path d="M3397.69 1392.74C3390.13 1385.38 3378.5 1385.75 3371.13 1393.31 3370.05 1394.43 3368.97 1395.98 3368.11 1397.31L3267.71 1358.47C3269.82 1352.3 3269.73 1345.71 3266.8 1339.83 3264.09 1333.72 3259.19 1328.95 3252.8 1326.62 3248.16 1324.71 3242.89 1324.34 3237.85 1325.5 3236.54 1325.96 3235.45 1326.2 3234.36 1326.87 3227.38 1313.57 3193.79 1247.5 3159.55 1181.66 3142.87 1148.95 3129.8 1123.66 3119.43 1103.6 3125.54 1100.45 3131.19 1095.98 3136.17 1090.87 3164.97 1060.84 3164.12 1013.21 3134.31 984.196 3116.75 967.526 3093.39 960.814 3071.26 963.964L3035.12 755.45 3036.22 755.216C3041.04 754.273 3045.39 751.58 3048.86 748.021 3051.45 744.913 3053.38 741.594 3054.43 737.848L3137.61 752.981C3137.43 755.837 3137.69 758.688 3139.05 761.743 3143.34 771.125 3154.38 775.368 3163.76 771.072 3173.14 766.775 3177.39 755.741 3173.31 746.136 3169.01 736.754 3157.98 732.511 3148.6 736.807 3143.36 739.073 3139.9 743.51 3138.43 748.579L3055.25 733.447C3056.03 725.972 3053.29 718.105 3047.51 712.475 3045.5 710.526 3043.29 709.238 3040.86 708.173L3068.54 626.355C3074.92 627.806 3082.36 625.511 3086.89 619.962 3093.37 611.972 3091.9 600.137 3083.91 593.658 3075.92 587.179 3064.3 588.432 3057.82 596.422 3051.12 604.634 3052.38 616.253 3060.37 622.732 3061.69 623.593 3063.02 624.453 3064.13 625.097L3036.67 706.692C3032.7 705.428 3028.31 705.487 3023.94 706.424 3019.34 707.583 3015.2 710.053 3011.74 713.612 3007.19 718.722 3004.86 725.12 3004.95 731.705 3005.26 738.506 3008.2 744.833 3013.09 749.159 3018.42 754.356 3025.7 756.674 3032.71 755.702L3030.96 756.164 3066.88 964.901C3052.43 967.729 3038.69 974.718 3027.65 986.062 3007.51 1007.19 3001.97 1036.46 3010.22 1062.25L2909.05 1098.08C2905.17 1087.37 2897.59 1078.25 2886.75 1072.47 2876.81 1067.55 2865.15 1066.17 2854.65 1068.95 2852.03 1069.42 2849.63 1070.55 2847 1071.46L2782.54 945.436C2786.9 942.743 2789.92 938.751 2791.17 933.465 2793.45 923.556 2787.17 913.541 2777.04 911.042 2766.91 908.982 2756.9 915.263 2754.61 925.173 2752.34 935.522 2758.62 945.536 2768.74 947.596 2772.27 948.427 2775.56 948.164 2778.62 947.244L2843.3 1073.49C2835.23 1077.77 2828.73 1084.44 2824.67 1092.62 2813.12 1115.17 2822.05 1142.93 2844.59 1154.48 2854.76 1159.61 2865.97 1161 2876.91 1158.22 2889.6 1154.98 2900.68 1146.27 2906.9 1134.55 2912.03 1124.38 2912.97 1112.73 2910.42 1102.45L3011.81 1066.4C3015.89 1076.01 3021.72 1085.15 3029.5 1092.73 3053.29 1115.46 3087.81 1119.61 3115.51 1105.85 3149.08 1170.6 3198.21 1266.54 3230.21 1328.9 3225.86 1331.59 3222.41 1336.03 3220.5 1341.1 3217.95 1347.29 3218.04 1354.31 3220.75 1360.42 3223.69 1366.75 3228.8 1371.29 3234.76 1373.62 3237.18 1374.25 3239.61 1374.88 3241.81 1375.29 3242.57 1432.79 3246.51 1531.09 3248.37 1572.34 3241.36 1573.31 3235.06 1578.01 3232.96 1585.5 3229.8 1595.42 3235.42 1605.66 3245.34 1608.83 3255.48 1611.76 3265.73 1606.14 3268.89 1596.22 3271.61 1586.3 3266.2 1575.84 3256.06 1572.9 3255.18 1572.47 3253.86 1572.49 3252.76 1572.28 3250.9 1531.04 3246.96 1432.74 3246.2 1375.23 3247.51 1375.21 3248.82 1374.75 3249.92 1374.52 3256.7 1372.89 3262.35 1368.43 3265.79 1362.67L3366.63 1401.5C3365.18 1407.88 3366.59 1414.89 3371.92 1419.65 3379.26 1426.79 3391.11 1426.64 3398.04 1419.08 3405.4 1411.52 3405.03 1399.89 3397.69 1392.74M3016.12 746.045C3012.12 742.147 3009.63 737.13 3009.34 731.646 3009.49 726.156 3011.17 720.864 3015.07 716.86 3017.67 713.752 3021.37 711.727 3025.31 710.796 3032.09 709.168 3039.14 710.83 3044.26 715.811 3052.7 723.602 3053.09 736.549 3045.3 744.995 3042.49 747.887 3039.22 749.907 3035.28 750.838 3028.28 752.688 3021.45 750.803 3016.12 746.045M2902.7 1132.63C2897.13 1143.24 2887.36 1151.05 2875.76 1154.06 2866.13 1156.39 2855.58 1155.21 2846.73 1150.5 2826.4 1140.24 2818.16 1114.88 2828.65 1094.76 2832.71 1086.58 2839.22 1080.35 2847.07 1076.29L2847.51 1076.29C2850.12 1074.94 2852.75 1074.02 2855.59 1073.33 2865.44 1070.78 2875.55 1071.96 2884.61 1076.45 2905.17 1086.93 2913.18 1112.07 2902.7 1132.63ZM3248.98 1370.14C3244.83 1371.29 3240.43 1370.91 3236.68 1369.43 3231.38 1367.3 3227.16 1363.63 3225.12 1358.61 3222.64 1353.59 3222.56 1347.88 3224.47 1342.81 3226.8 1336.41 3232.23 1331.73 3238.79 1329.88 3243.17 1328.95 3247.34 1329.11 3251.32 1330.81 3256.39 1332.72 3260.39 1336.62 3262.88 1341.64 3264.92 1346.66 3265.21 1352.14 3263.08 1357.44 3260.75 1363.84 3255.33 1368.52 3248.98 1370.14" fill="#18BAA8" fill-rule="evenodd"/></g></svg>