<svg width="525" height="446" xmlns="http://www.w3.org/2000/svg" xmlns:xlink="http://www.w3.org/1999/xlink" xml:space="preserve" overflow="hidden"><g transform="translate(-3866 -1966)"><path d="M4265.13 1966.38C4254.14 1968.44 4246.96 1978.96 4249.01 1989.96 4250.15 1996.96 4254.8 2002.48 4261.02 2005.02L4219.4 2153.67C4212.54 2152.69 4205.1 2154.03 4199.27 2158.55 4196.7 2160.41 4194.19 2163.02 4192.42 2165.57 4187.32 2173.66 4186.82 2182.9 4190.02 2191.1L4036.43 2268.05C4021.28 2245.54 3996.54 2229.67 3967.54 2226.94 3916.7 2222.59 3871.65 2260.19 3867.27 2311.06 3862.77 2362.25 3900.44 2406.99 3951.28 2411.34 4002.3 2416.12 4047.17 2378.09 4051.54 2327.22 4053.48 2307.3 4048.54 2288.23 4039.03 2272.37L4192.3 2195.3C4194.34 2198.31 4197.13 2201.26 4200.61 2203.4 4210.12 2209.45 4222.17 2209.27 4231.45 2202.51 4234.02 2200.66 4236.53 2198.05 4238.3 2195.5 4239.37 2193.75 4240 2192.2 4240.76 2190.33L4350.39 2206.25C4350.5 2207.75 4350.62 2209.25 4350.86 2210.43 4352.91 2221.44 4363.29 2228.93 4374.29 2226.87 4385.29 2224.81 4392.47 2214.29 4390.73 2203.42 4388.8 2192.1 4377.98 2184.79 4366.99 2186.86 4359.11 2188.37 4353.08 2194.27 4351.23 2201.51L4241.92 2185.71C4242.69 2182.03 4242.71 2178.41 4241.98 2174.84 4240.53 2167.72 4236.14 2161.57 4230.11 2157.67 4228.06 2156.47 4226.32 2155.4 4224.01 2154.82L4265.63 2006.17C4267.94 2006.74 4270.19 2006.57 4272.44 2006.39 4283.43 2004.33 4290.74 1993.51 4288.69 1982.5 4286.95 1971.63 4276.13 1964.32 4265.13 1966.38M4237.23 2175.82C4237.78 2178.94 4238.01 2181.94 4237.18 2184.87L4237.18 2184.87 4237.24 2185.62C4236.66 2187.93 4235.65 2190.42 4234.01 2192.66 4232.68 2195.03 4230.74 2197.14 4228.6 2198.81 4221.02 2204.08 4210.78 2204.27 4203.01 2199.29 4192.69 2192.55 4189.66 2178.61 4196.4 2168.28 4198.04 2166.04 4199.99 2163.93 4202.12 2162.25 4209.7 2156.99 4219.63 2156.67 4227.4 2161.65 4232.62 2164.86 4236.02 2169.88 4237.23 2175.82Z" fill="#18BAA8" fill-rule="evenodd"/></g></svg>