<svg width="324" height="201" xmlns="http://www.w3.org/2000/svg" xmlns:xlink="http://www.w3.org/1999/xlink" xml:space="preserve" overflow="hidden"><g transform="translate(-650 -1050)"><g><g><g><path d="M145.523 182.193 110.487 98.1061 112.291 98.1061C115.743 98.1061 118.541 95.308 118.541 91.8561L118.541 69.6791 110.427 69.6791 110.427 61.3457 118.76 61.3457 118.76 39.602C118.76 36.8243 118.389 34.0589 117.658 31.3791L113.766 17.1062C113.025 14.387 110.556 12.5003 107.737 12.5L92.2915 12.5C89.4684 12.4947 86.9924 14.3825 86.2499 17.1062L82.3582 31.3791C81.627 34.0589 81.2563 36.8243 81.2561 39.602L81.2561 61.3457 89.5894 61.3457 89.5894 69.6791 81.2561 69.6791 81.2561 91.8561C81.2561 95.308 84.0542 98.1061 87.5061 98.1061L89.529 98.1061 54.4978 182.193C53.5807 184.304 54.5483 186.758 56.6589 187.676 58.7693 188.593 61.2237 187.625 62.1407 185.514 62.1576 185.476 62.1739 185.437 62.1895 185.398L80.4165 141.666 95.8478 141.666 95.8478 172.223C95.8478 174.524 97.7132 176.389 100.014 176.389 102.316 176.389 104.181 174.524 104.181 172.223L104.181 141.666 119.612 141.666 137.835 185.398C138.688 187.535 141.112 188.577 143.249 187.724 145.386 186.872 146.428 184.448 145.576 182.31 145.56 182.271 145.544 182.232 145.527 182.193ZM100.01 25C103.462 25 106.26 27.7981 106.26 31.25 106.26 34.7018 103.462 37.4999 100.01 37.4999 96.5584 37.4999 93.7603 34.7018 93.7603 31.25 93.7603 27.7981 96.5584 25 100.01 25ZM83.8832 133.333 95.8436 104.631 95.8436 133.333ZM104.177 133.333 104.177 104.627 116.137 133.333Z" fill="#128B7E" transform="matrix(1 0 0 1 650 1050)"/></g></g></g><g><g><g><path d="M913.062 1218.5 839.937 1218.5 839.937 1088.5 913.062 1088.5 913.062 1218.5ZM868.375 1072.25 884.625 1072.25C886.859 1072.25 888.687 1074.08 888.687 1076.31 888.687 1078.55 886.859 1080.38 884.625 1080.38L868.375 1080.38C866.141 1080.38 864.312 1078.55 864.312 1076.31 864.312 1074.08 866.141 1072.25 868.375 1072.25ZM921.187 1064.12 831.812 1064.12C829.578 1064.12 827.75 1065.95 827.75 1068.19L827.75 1238.81C827.75 1241.05 829.578 1242.87 831.812 1242.87L921.187 1242.87C923.422 1242.87 925.25 1241.05 925.25 1238.81L925.25 1068.19C925.25 1065.95 923.422 1064.12 921.187 1064.12Z" fill="#128B7E"/></g></g></g></g></svg>