<svg width="65" height="65" xmlns="http://www.w3.org/2000/svg" xmlns:xlink="http://www.w3.org/1999/xlink" xml:space="preserve" overflow="hidden"><g transform="translate(-211 -452)"><path d="M237.745 480.708 239.641 478.812C238.693 477.797 238.083 476.443 238.083 474.953 238.083 473.464 238.693 472.109 239.641 471.094L237.745 469.198C236.255 470.688 235.375 472.719 235.375 474.953 235.375 477.188 236.255 479.219 237.745 480.708Z" fill="#128B7E"/><path d="M233.953 484.5 235.849 482.604C233.885 480.641 232.667 477.932 232.667 474.953 232.667 471.974 233.885 469.266 235.849 467.302L233.953 465.406C231.448 467.844 229.958 471.229 229.958 474.953 229.958 478.677 231.448 482.062 233.953 484.5Z" fill="#128B7E"/><path d="M231.99 486.464C229.078 483.552 227.25 479.49 227.25 474.953 227.25 470.417 229.078 466.422 231.99 463.443L230.094 461.547C226.641 465 224.542 469.74 224.542 474.953 224.542 480.167 226.641 484.906 230.094 488.359L231.99 486.464Z" fill="#128B7E"/><path d="M249.255 480.708C250.745 479.219 251.625 477.188 251.625 474.953 251.625 472.719 250.745 470.688 249.255 469.198L247.359 471.094C248.307 472.042 248.917 473.396 248.917 474.953 248.917 476.51 248.307 477.797 247.359 478.812L249.255 480.708Z" fill="#128B7E"/><path d="M251.151 482.604 253.047 484.5C255.552 482.062 257.042 478.677 257.042 474.953 257.042 471.229 255.552 467.844 253.047 465.406L251.151 467.302C253.115 469.266 254.333 471.974 254.333 474.953 254.333 477.932 253.115 480.641 251.151 482.604Z" fill="#128B7E"/><path d="M255.01 486.464 256.906 488.359C260.359 484.906 262.458 480.167 262.458 474.953 262.458 469.74 260.359 465 256.906 461.547L255.01 463.443C257.922 466.354 259.75 470.417 259.75 474.953 259.75 479.49 257.922 483.484 255.01 486.464Z" fill="#128B7E"/><path d="M261.104 502.036C260.359 502.036 259.75 501.427 259.75 500.682 259.75 499.938 260.359 499.328 261.104 499.328 261.849 499.328 262.458 499.938 262.458 500.682 262.458 501.427 261.849 502.036 261.104 502.036ZM254.333 502.036C253.589 502.036 252.979 501.427 252.979 500.682 252.979 499.938 253.589 499.328 254.333 499.328 255.078 499.328 255.688 499.938 255.688 500.682 255.688 501.427 255.078 502.036 254.333 502.036ZM247.562 502.036C246.818 502.036 246.208 501.427 246.208 500.682 246.208 499.938 246.818 499.328 247.562 499.328 248.307 499.328 248.917 499.938 248.917 500.682 248.917 501.427 248.307 502.036 247.562 502.036ZM240.792 502.036C240.047 502.036 239.438 501.427 239.438 500.682 239.438 499.938 240.047 499.328 240.792 499.328 241.536 499.328 242.146 499.938 242.146 500.682 242.146 501.427 241.536 502.036 240.792 502.036ZM227.25 503.391C225.76 503.391 224.542 502.172 224.542 500.682 224.542 499.193 225.76 497.974 227.25 497.974 228.74 497.974 229.958 499.193 229.958 500.682 229.958 502.172 228.74 503.391 227.25 503.391ZM263.812 493.911 244.854 493.911 244.854 477.255C245.667 476.781 246.208 475.901 246.208 474.953 246.208 473.464 244.99 472.245 243.5 472.245 242.01 472.245 240.792 473.464 240.792 474.953 240.792 475.969 241.333 476.849 242.146 477.255L242.146 493.911 223.188 493.911C221.698 493.911 220.479 495.13 220.479 496.62L220.479 504.745C220.479 506.234 221.698 507.453 223.188 507.453L263.812 507.453C265.302 507.453 266.521 506.234 266.521 504.745L266.521 496.62C266.521 495.13 265.302 493.911 263.812 493.911Z" fill="#128B7E"/></g></svg>